<?xml version="1.0" encoding="iso-8859-1"?>
<!-- Generator: Adobe Illustrator 19.0.0, SVG Export Plug-In . SVG Version: 6.00 Build 0)  -->
<svg version="1.1" id="Layer_1" xmlns="http://www.w3.org/2000/svg" xmlns:xlink="http://www.w3.org/1999/xlink" x="0px" y="0px"
	 viewBox="0 0 507.865 507.865" style="enable-background:new 0 0 507.865 507.865;" xml:space="preserve">
<g transform="translate(1)">
	<path style="fill:#FFDD09;" d="M212.758,184.546l26.453,52.053c6.827,13.653,15.36,25.6,26.453,35.84l112.64,112.64
		c0,0,41.813,34.987,42.667,83.627c0,5.12,2.56,10.24,7.68,13.653c5.973,4.267,15.36,6.827,22.187,0l11.947-11.947v-35.84h35.84
		l-9.387-23.04c-5.12-12.8-13.653-24.747-23.04-34.987L321.131,232.332c0,0-22.187-17.067-28.16-48.64
		c-2.56-13.653-7.68-26.453-15.36-37.547l-11.093-16.213L212.758,184.546z"/>
	<path style="fill:#FD9808;" d="M497.771,431.159l-9.387-23.04c-5.12-12.8-13.653-24.747-23.04-34.987l-144.213-143.36
		c0,0-22.187-17.067-28.16-48.64c-2.56-13.653-7.68-26.453-15.36-37.547l-11.093-16.213l-14.507,14.507l9.387,14.507
		c7.68,11.093,11.947,23.893,15.36,37.547c6.827,31.573,28.16,48.64,28.16,48.64l144.213,144.213
		c10.24,10.24,17.92,21.333,23.04,34.987L497.771,431.159z"/>
	<polygon style="fill:#FFDD09;" points="193.984,57.399 146.198,106.039 109.504,70.199 146.198,57.399 158.144,21.559 	"/>
	<polygon style="fill:#FD9808;" points="178.624,72.759 193.131,58.252 156.438,22.412 149.611,43.746 	"/>
	<g>
		<path style="fill:#FFDD09;" d="M134.251,117.986l-84.48,48.64c0,0-7.68,28.16,35.84,72.533c0,0,31.573,35.84,72.533,35.84
			l48.64-84.48l72.533-72.533l-72.533-72.533L134.251,117.986z"/>
		<path style="fill:#FFDD09;" d="M158.144,274.999L158.144,274.999L158.144,274.999L158.144,274.999z"/>
		<path style="fill:#FFDD09;" d="M49.771,166.626L49.771,166.626L49.771,166.626L49.771,166.626z"/>
		<path style="fill:#FFDD09;" d="M115.478,136.759l-84.48,48.64c0,0-7.68,28.16,35.84,72.533c0,0,31.573,35.84,72.533,35.84
			l48.64-84.48l72.533-72.533l-73.387-72.533L115.478,136.759z"/>
		<path style="fill:#FFDD09;" d="M139.371,293.772L139.371,293.772L139.371,293.772L139.371,293.772z"/>
		<path style="fill:#FFDD09;" d="M30.998,184.546L30.998,184.546L30.998,184.546L30.998,184.546z"/>
	</g>
	<polygon style="fill:#FD9808;" points="258.838,138.466 186.304,65.932 205.078,47.159 277.611,119.692 	"/>
	<path style="fill:#FCC309;" d="M85.611,238.306c-43.52-43.52-36.693-70.827-35.84-72.533l0,0l-41.813,17.92
		c0,0-5.973,29.867,48.64,84.48c0,0,39.253,43.52,84.48,48.64l17.92-41.813l0,0C117.184,274.999,85.611,238.306,85.611,238.306"/>
	<path style="fill:#FFFFFF;" d="M67.691,251.959c-38.4-38.4-46.933-64.853-47.787-76.8l-15.36,5.973c0,0-5.973,29.867,48.64,84.48
		c0,0,39.253,43.52,84.48,48.64l6.827-15.36C102.678,290.359,67.691,251.959,67.691,251.959"/>
	<path d="M439.744,495.159c-5.12,0-11.093-1.707-17.067-5.12c-6.827-4.267-11.093-11.947-11.093-20.48
		c0-43.52-39.253-76.8-39.253-76.8L258.838,279.266c-11.093-11.093-20.48-23.893-27.307-38.4l-26.453-52.053
		c-1.707-3.413-0.853-7.68,1.707-10.24l53.76-54.613c1.707-1.707,4.267-2.56,6.827-2.56c2.56,0,5.12,1.707,5.973,3.413
		l11.093,16.213c7.68,11.093,12.8,24.747,16.213,40.96c5.973,28.16,24.747,43.52,25.6,43.52c0,0,0.853,0,0.853,0.853
		l144.213,144.213c11.093,11.093,19.627,23.04,25.6,37.547l9.387,23.04c0.853,2.56,0.853,5.973-0.853,7.68
		c-1.707,2.56-4.267,3.413-6.827,3.413h-27.307v27.307c0,2.56-0.853,4.267-2.56,5.973l-11.947,11.947
		C450.838,492.599,445.718,495.159,439.744,495.159z M222.998,186.252l23.04,46.933c5.973,12.8,14.507,23.893,24.747,34.133
		l112.64,112.64c1.707,0.853,44.373,37.547,45.227,89.6c0,2.56,1.707,5.12,3.413,5.973c7.68,5.12,10.24,2.56,11.947,0.853
		l9.387-9.387v-32.427c0-5.12,3.413-8.533,8.533-8.533h23.04l-4.267-11.093c-5.12-11.947-12.8-23.04-21.333-31.573L315.158,239.159
		c-3.413-2.56-23.893-21.333-30.72-52.907c-2.56-13.653-7.68-24.747-13.653-34.987l-5.12-7.68L222.998,186.252z"/>
	<path d="M158.144,283.532L158.144,283.532c-44.373,0-77.653-37.547-78.507-39.253c-46.08-46.08-39.253-76.8-38.4-80.213
		c0.853-1.707,1.707-4.267,4.267-5.12l83.627-47.787l71.68-71.68c3.413-3.413,8.533-3.413,11.947,0l72.533,72.533
		c1.707,1.707,2.56,3.413,2.56,5.973c0,2.56-1.707,4.267-3.413,5.973l-71.68,71.68l-47.787,83.627
		C164.118,281.826,161.558,283.532,158.144,283.532z M57.451,171.746c0,7.68,2.56,29.867,34.133,61.44
		c0.853,0.853,27.307,30.72,61.44,33.28l46.08-80.213c0-0.853,0.853-0.853,1.707-1.707l66.56-66.56l-60.587-60.587l-66.56,66.56
		c-0.853,0.853-0.853,0.853-1.707,1.707L57.451,171.746z"/>
	<path d="M158.144,283.532c-1.707,0-3.413-0.853-5.12-1.707c-3.413-2.56-4.267-7.68-1.707-11.093
		c1.707-2.56,4.267-4.267,6.827-4.267c3.413,0,6.827,1.707,7.68,5.12c0.853,3.413,0.853,6.827-1.707,9.387l0,0
		C162.411,282.679,160.704,283.532,158.144,283.532z"/>
	<path d="M49.771,175.159c-2.56,0-5.12-0.853-6.827-3.413c-2.56-3.413-2.56-8.533,0.853-11.093l0,0
		c2.56-2.56,6.827-3.413,10.24-1.707s5.12,5.973,4.267,9.387c-0.853,1.707-1.707,4.267-3.413,5.12
		C53.184,174.306,51.478,175.159,49.771,175.159z"/>
	<path d="M140.224,325.346h-0.853c-47.787-5.12-87.893-49.493-89.6-51.2c-55.467-55.467-51.2-88.747-50.347-92.16
		c0.853-2.56,2.56-5.12,5.12-5.973l42.667-17.92c2.56-0.853,6.827,0,8.533,2.56s2.56,5.12,1.707,7.68c0,0-5.12,24.747,34.133,64l0,0
		c0,0,29.867,33.28,65.707,33.28c1.707,0,4.267,0.853,5.973,2.56c2.56,2.56,3.413,6.827,2.56,9.387l-17.92,42.667
		C146.198,323.639,143.638,325.346,140.224,325.346z M15.638,190.519c0.853,9.387,7.68,34.133,46.08,72.533
		c0.853,0.853,34.133,37.547,73.387,45.227l11.093-25.6c-36.693-5.973-63.147-34.987-65.707-37.547
		c-28.16-28.16-36.693-51.2-38.4-64.853L15.638,190.519z"/>
	<path d="M146.198,114.572L146.198,114.572c-2.56,0-4.267-0.853-5.973-2.56l-35.84-35.84c-1.707-1.707-2.56-5.12-2.56-7.68
		c0.853-2.56,2.56-5.12,5.973-5.973l32.427-11.093l11.093-32.427c0.853-2.56,3.413-5.12,5.973-5.973c2.56-0.853,5.973,0,7.68,2.56
		l35.84,35.84c1.707,1.707,2.56,3.413,2.56,5.973s-0.853,4.267-2.56,5.973l-48.64,48.64
		C150.464,113.719,148.758,114.572,146.198,114.572z M125.718,73.612l20.48,20.48l35.84-35.84l-20.48-20.48l-7.68,23.04
		c-0.853,2.56-2.56,4.267-5.12,5.12L125.718,73.612z"/>
	<path d="M67.691,216.972c-2.56,0-4.267-0.853-5.973-2.56c-3.413-3.413-3.413-8.533,0-11.947l23.893-23.893
		c3.413-3.413,8.533-3.413,11.947,0s3.413,8.533,0,11.947l-23.893,23.893C71.958,216.119,69.398,216.972,67.691,216.972z"/>
	<path d="M91.584,240.866c-2.56,0-4.267-0.853-5.973-2.56c-3.413-3.413-3.413-8.533,0-11.947l42.667-41.813
		c3.413-3.413,8.533-3.413,11.947,0s3.413,8.533,0,11.947l-42.667,41.813C95.851,240.866,94.144,240.866,91.584,240.866z"/>
	<path d="M116.331,265.612c-2.56,0-4.267-0.853-5.973-2.56c-3.413-3.413-3.413-8.533,0-11.947l17.92-17.92
		c3.413-3.413,8.533-3.413,11.947,0s3.413,8.533,0,11.947l-17.92,17.92C120.598,264.759,118.038,265.612,116.331,265.612z"/>
	<path d="M260.544,193.079c-2.56,0-4.267-0.853-5.973-2.56l-23.893-23.893c-3.413-3.413-3.413-8.533,0-11.947s8.533-3.413,11.947,0
		l23.893,23.893c3.413,3.413,3.413,8.533,0,11.947C264.811,192.226,263.104,193.079,260.544,193.079z"/>
	<path d="M328.811,298.039c-2.56,0-4.267-0.853-5.973-2.56l-42.667-42.667c-3.413-3.413-3.413-8.533,0-11.947
		c3.413-3.413,8.533-3.413,11.947,0l42.667,42.667c3.413,3.413,3.413,8.533,0,11.947
		C333.078,297.186,330.518,298.039,328.811,298.039z"/>
	<path d="M419.264,388.492c-2.56,0-4.267-0.853-5.973-2.56l-42.667-42.667c-3.413-3.413-3.413-8.533,0-11.947
		c3.413-3.413,8.533-3.413,11.947,0l42.667,42.667c3.413,3.413,3.413,8.533,0,11.947
		C423.531,387.639,420.971,388.492,419.264,388.492z"/>
	<path d="M358.678,307.426c3.413,3.413,3.413,8.533,0,11.947c-3.413,3.413-8.533,3.413-11.947,0c-3.413-3.413-3.413-8.533,0-11.947
		C350.144,304.012,355.264,304.012,358.678,307.426"/>
</g>
<g>
</g>
<g>
</g>
<g>
</g>
<g>
</g>
<g>
</g>
<g>
</g>
<g>
</g>
<g>
</g>
<g>
</g>
<g>
</g>
<g>
</g>
<g>
</g>
<g>
</g>
<g>
</g>
<g>
</g>
</svg>
