<?xml version="1.0" encoding="iso-8859-1"?>
<!-- Generator: Adobe Illustrator 19.0.0, SVG Export Plug-In . SVG Version: 6.00 Build 0)  -->
<svg version="1.1" id="Layer_1" xmlns="http://www.w3.org/2000/svg" xmlns:xlink="http://www.w3.org/1999/xlink" x="0px" y="0px"
	 viewBox="0 0 504.034 504.034" style="enable-background:new 0 0 504.034 504.034;" xml:space="preserve">
<g transform="translate(1 1)">
	<path style="fill:#FFD0A1;" d="M198.893,353.594L198.893,353.594l-58.88,7.68L361.88,139.407
		c9.387,8.533,17.067,17.92,24.747,27.307l-1.707,0.853L198.893,353.594L198.893,353.594z M198.893,353.594L198.893,353.594
		l-135.68,135.68c-11.093,11.093-22.187,11.947-34.133,0l-17.067-17.067c-11.093-11.093-11.093-23.04,0-34.133l135.68-135.68
		l-7.68,58.88L198.893,353.594z M46.147,463.674c5.12,0,8.533-3.413,8.533-8.533s-3.413-8.533-8.533-8.533s-8.533,3.413-8.533,8.533
		S41.027,463.674,46.147,463.674z M361.88,139.407L140.013,361.274l7.68-58.88L332.867,117.22l1.707-2.56
		C343.96,122.34,352.493,130.874,361.88,139.407"/>
	<polygon style="fill:#ECF4F7;" points="498.413,2.874 472.813,79.674 455.747,45.54 421.613,28.474 	"/>
	<path style="fill:#AE938D;" d="M387.48,113.807c114.347,114.347,110.933,247.467,110.933,247.467l-34.133-8.533
		c0,0,0-12.8-4.267-34.133c-2.56-16.213-8.533-34.133-8.533-34.133c-10.24-33.28-29.867-75.947-64.853-117.76
		c-7.68-9.387-15.36-17.92-24.747-27.307c-9.387-9.387-17.92-17.067-27.307-24.747c-42.667-34.987-84.48-54.613-118.613-64.853
		c0,0-17.067-5.12-34.133-8.533c-22.187-4.267-34.133-4.267-34.133-4.267L139.16,2.874C140.013,2.874,280.813,7.14,387.48,113.807"
		/>
</g>
<path style="fill:#51565F;" d="M47.147,503.927c-6.827,0-13.653-3.413-20.48-10.24L9.6,476.62c-12.8-12.8-12.8-27.307,0-40.107
	l102.4-102.4c1.707-1.707,4.267-1.707,5.973,0s1.707,4.267,0,5.973l-102.4,102.4c-9.387,9.387-9.387,18.773,0,28.16l17.067,17.067
	c10.24,10.24,17.92,10.24,28.16,0l102.4-102.4c1.707-1.707,4.267-1.707,5.973,0c1.707,1.707,1.707,4.267,0,5.973l-102.4,102.4
	C60.8,500.514,53.973,503.927,47.147,503.927z M47.147,468.94c-6.827,0-12.8-5.973-12.8-12.8s5.973-12.8,12.8-12.8
	s12.8,5.973,12.8,12.8S53.973,468.94,47.147,468.94z M47.147,451.874c-2.56,0-4.267,1.707-4.267,4.267s1.707,4.267,4.267,4.267
	c2.56,0,4.267-1.707,4.267-4.267S49.707,451.874,47.147,451.874z M499.413,366.54h-0.853l-34.133-8.533
	c-1.707-0.853-3.413-2.56-3.413-4.267c0,0,0-11.093-3.413-29.013l-256,34.133c-0.853,0-0.853,0-1.707,0l-58.027,7.68
	c0,0,0,0-0.853,0l0,0l0,0l0,0l0,0l0,0l0,0l0,0l0,0l0,0l0,0l0,0c-0.853,0-1.707-0.853-2.56-0.853l0,0l0,0l0,0l0,0l0,0
	c-0.853-0.853-0.853-1.707-0.853-2.56l0,0l0,0l0,0l0,0l0,0l0,0l0,0c0,0,0,0,0-0.853L179.413,46.54
	c-18.773-3.413-29.013-3.413-29.013-3.413c-1.707,0-3.413-1.707-4.267-3.413L137.6,5.58c0-1.707,0-2.56,0.853-3.413
	c0.853-0.853,1.707-1.707,3.413-1.707c1.707,0,140.8,5.12,247.467,109.227l61.44-61.44L421.76,33.74
	c-1.707-0.853-2.56-2.56-2.56-4.267c0-1.707,0.853-3.413,2.56-3.413l76.8-25.6c1.707-0.853,3.413,0,4.267,0.853
	s1.707,2.56,0.853,4.267l-25.6,76.8c-0.853,1.707-1.707,2.56-3.413,2.56c-1.707,0-3.413-0.853-4.267-2.56l-14.507-29.013
	l-61.44,61.44C505.387,228.3,503.68,361.42,503.68,362.274c0,1.707-0.853,2.56-1.707,3.413
	C501.12,366.54,500.267,366.54,499.413,366.54z M469.547,350.327l25.6,5.973c-0.853-25.6-11.093-139.947-109.227-238.933
	C293.76,25.207,174.293,10.7,146.987,8.141l5.973,25.6c5.12,0,16.213,0.853,31.573,4.267c2.56,0.853,3.413,2.56,3.413,5.12
	l-33.28,248.32l153.6-153.6c1.707-1.707,4.267-1.707,5.973,0c0.853,0.853,0.853,1.707,0.853,3.413s0,2.56-0.853,3.413
	L152.107,306.807l-5.973,45.227l209.92-209.92c-51.2-50.347-104.96-74.24-140.8-85.333c-2.56-0.853-3.413-3.413-2.56-5.12
	c0.853-2.56,3.413-3.413,5.12-2.56c37.547,11.947,93.013,37.547,146.773,90.453c53.76,53.76,78.507,109.227,90.453,146.773
	c0.853,2.56-0.853,4.267-2.56,5.12c-2.56,0.853-4.267-0.853-5.12-2.56c-11.093-35.84-34.987-88.747-85.333-139.947l-209.92,209.92
	l45.227-5.973l162.133-162.133c1.707-1.707,4.267-1.707,5.973,0c0.853,0.853,0.853,1.707,0.853,3.413s0,2.56-0.853,3.413
	l-153.6,153.6l248.32-33.28c2.56,0,4.267,0.853,5.12,3.413C468.693,334.967,469.547,345.207,469.547,350.327z M460.16,44.833
	l12.8,24.747l19.627-58.88l-58.88,19.627l24.747,12.8c0.853,0,0.853,0.853,0.853,0.853L460.16,44.833z"/>
<g>
</g>
<g>
</g>
<g>
</g>
<g>
</g>
<g>
</g>
<g>
</g>
<g>
</g>
<g>
</g>
<g>
</g>
<g>
</g>
<g>
</g>
<g>
</g>
<g>
</g>
<g>
</g>
<g>
</g>
</svg>
