<?xml version="1.0" encoding="iso-8859-1"?>
<!-- Generator: Adobe Illustrator 19.0.0, SVG Export Plug-In . SVG Version: 6.00 Build 0)  -->
<svg version="1.1" id="Layer_1" xmlns="http://www.w3.org/2000/svg" xmlns:xlink="http://www.w3.org/1999/xlink" x="0px" y="0px"
	 viewBox="0 0 512.001 512.001" style="enable-background:new 0 0 512.001 512.001;" xml:space="preserve">
<g>
	<path style="fill:#FFC033;" d="M154.048,370.287l-37.216,37.218l-37.216,37.335c-6.906,6.788-18.024,6.788-24.813,0l-49.623-49.74
		c-6.905-6.788-6.905-17.907,0-24.812l74.436-74.435c6.905-6.905,18.024-6.905,24.811,0l49.623,49.623
		C160.954,352.379,160.954,363.497,154.048,370.287z"/>
	<path style="fill:#FFC033;" d="M42.375,499.583c-4.492,0-8.984-1.715-12.412-5.144c-6.857-6.851-6.857-17.972,0-24.825
		l265.045-265.046c6.857-6.857,17.967-6.857,24.825,0c6.857,6.851,6.857,17.972,0,24.825L54.787,494.439
		C51.359,497.868,46.867,499.583,42.375,499.583z"/>
</g>
<path style="fill:#F9A926;" d="M29.964,494.439c3.429,3.429,7.921,5.144,12.412,5.144s8.984-1.715,12.412-5.144l265.046-265.046
	c6.857-6.851,6.857-17.972,0-24.825c-0.074-0.074-0.176-0.095-0.252-0.166L29.797,494.188
	C29.869,494.263,29.889,494.364,29.964,494.439z"/>
<path style="fill:#FFC033;" d="M415.501,243.731c-18.059,0-38.219-2.109-60.782-4.468c-14.847-1.548-31.099-3.251-48.929-4.623
	c-8.629-0.662-15.486-7.527-16.15-16.156c-1.383-17.829-3.075-34.082-4.629-48.924c-6.206-59.313-10.687-102.167,20.402-133.249
	c30.699-30.694,77.513-31.979,106.59-2.903c18.927,18.921,21.762,41.18,19.544,59.323c18.104-2.223,40.402,0.611,59.319,19.538
	c14.641,14.635,22.115,33.945,21.03,54.369c-1.017,19.264-9.521,37.809-23.933,52.22
	C468.705,238.125,444.921,243.731,415.501,243.731z"/>
<g>
	<path style="fill:#F9A926;" d="M294.61,229.376c2.888,2.962,6.793,4.925,11.182,5.262c17.829,1.372,34.082,3.075,48.929,4.623
		c22.561,2.361,42.723,4.468,60.782,4.468c29.419,0,53.204-5.606,72.462-24.87c14.412-14.412,22.916-32.956,23.933-52.22
		c1.086-20.424-6.389-39.734-21.03-54.369c-18.915-18.927-41.214-21.762-59.319-19.538c0.013-0.104,0.014-0.218,0.027-0.322
		L294.61,229.376z"/>
	<path style="fill:#F9A926;" d="M91.319,381.99c-3.394,3.394-7.96,5.15-12.407,5.15s-9.012-1.756-12.407-5.15l-36.514-36.515
		l24.811-24.812l36.517,36.515C98.223,364.083,98.223,375.201,91.319,381.99z"/>
</g>
<circle style="fill:#CCE8FF;" cx="371.614" cy="152.37" r="35.111"/>
<path style="fill:#B0DBFF;" d="M371.62,187.476c19.392,0,35.111-15.719,35.111-35.111c0-9.695-3.929-18.473-10.284-24.827
	l-49.655,49.654C353.148,183.546,361.926,187.476,371.62,187.476z"/>
<g>
</g>
<g>
</g>
<g>
</g>
<g>
</g>
<g>
</g>
<g>
</g>
<g>
</g>
<g>
</g>
<g>
</g>
<g>
</g>
<g>
</g>
<g>
</g>
<g>
</g>
<g>
</g>
<g>
</g>
</svg>
