<?xml version="1.0" encoding="iso-8859-1"?>
<!-- Generator: Adobe Illustrator 19.0.0, SVG Export Plug-In . SVG Version: 6.00 Build 0)  -->
<svg version="1.1" id="Layer_1" xmlns="http://www.w3.org/2000/svg" xmlns:xlink="http://www.w3.org/1999/xlink" x="0px" y="0px"
	 viewBox="0 0 512 512" style="enable-background:new 0 0 512 512;" xml:space="preserve">
<path style="fill:#F36280;" d="M157.662,273.102h-25.653c-35.42,0-64.133-28.714-64.133-64.133v-47.031h153.92v47.031
	C221.795,244.388,193.082,273.102,157.662,273.102z"/>
<path style="fill:#E05161;" d="M102.08,208.968v-47.031H67.875v47.031c0,35.42,28.714,64.133,64.133,64.133h25.653
	c1.439,0,2.861-0.064,4.276-0.157C128.513,270.742,102.08,242.95,102.08,208.968z"/>
<path style="fill:#40CACF;" d="M379.991,153.386h-12.827V50.772h-68.409v102.614h-12.827c-21.252,0-38.48,17.228-38.48,38.48
	v265.085c0,21.252,17.228,38.48,38.48,38.48h94.062c21.252,0,38.48-17.228,38.48-38.48V191.866
	C418.471,170.614,401.244,153.386,379.991,153.386z"/>
<path style="fill:#3AB0B0;" d="M281.653,456.951V191.866c0-21.252,17.228-38.48,38.48-38.48h4.276c4.722,0,8.551-3.829,8.551-8.551
	V50.772h-34.205v102.614h-12.827c-21.252,0-38.48,17.228-38.48,38.48v265.085c0,21.252,17.228,38.48,38.48,38.48h34.204
	C298.882,495.431,281.653,478.203,281.653,456.951z"/>
<rect x="247.449" y="221.795" style="fill:#F1EDE8;" width="171.023" height="196.676"/>
<rect x="247.449" y="221.795" style="fill:#E3DCD2;" width="34.205" height="196.676"/>
<path style="fill:#F9C900;" d="M358.613,50.772h-51.307V16.568c0-4.722,3.829-8.551,8.551-8.551h34.204
	c4.722,0,8.551,3.829,8.551,8.551V50.772z"/>
<rect x="307.307" y="8.017" style="fill:#F9AA0C;" width="25.653" height="42.756"/>
<path style="fill:#F9C900;" d="M256,298.755c-136.957,0-247.983,59.342-247.983,132.543S76.426,503.982,256,503.982
	c188.125,0,247.983,0.516,247.983-72.685S392.958,298.755,256,298.755z"/>
<g>
	<path style="fill:#F9AA0C;" d="M281.653,478.329c-179.574,0-247.983,0.516-247.983-72.685c0-17.38,6.269-33.976,17.647-49.185
		c-27.31,21.298-43.301,47.069-43.301,74.838c0,73.201,68.409,72.685,247.983,72.685c157.135,0,224.768,0.35,242.791-42.189
		C464.117,478.517,397.003,478.329,281.653,478.329z"/>
	<path style="fill:#F9AA0C;" d="M279.692,299.36c-7.799-0.395-15.699-0.605-23.691-0.605c-7.992,0-15.892,0.211-23.691,0.605
		L256,409.92L279.692,299.36z"/>
	<path style="fill:#F9AA0C;" d="M355.343,309.83c-9.251-2.164-18.795-4.035-28.595-5.591l14.764,88.579L355.343,309.83z"/>
	<path style="fill:#F9AA0C;" d="M185.252,304.237c-9.8,1.556-19.344,3.427-28.595,5.591l13.831,82.989L185.252,304.237z"/>
</g>
<path d="M435.129,330.505c-2.825-1.51-5.71-2.977-8.641-4.406v-35.54c0-4.427-3.588-8.017-8.017-8.017
	c-4.428,0-8.017,3.589-8.017,8.017v28.337c-44.162-18.26-97.933-28.159-154.455-28.159c-0.179,0-0.356,0.005-0.534,0.005v-60.932
	h154.989v18.706c0,4.427,3.588,8.017,8.017,8.017c4.428,0,8.017-3.589,8.017-8.017v-56.651c0-25.638-20.858-46.497-46.497-46.497
	h-4.81v-86.58h0.534c4.428,0,8.017-3.589,8.017-8.017s-3.588-8.017-8.017-8.017h-8.551h-0.534V16.568
	C366.63,7.432,359.198,0,350.062,0h-34.204c-9.135,0-16.568,7.432-16.568,16.568v26.188h-0.534h-8.551
	c-4.428,0-8.017,3.589-8.017,8.017s3.588,8.017,8.017,8.017h0.534v86.58h-4.81c-25.638,0-46.497,20.858-46.497,46.497v99.176
	c-30.063,1.044-59.301,4.931-86.58,11.463v-21.386h4.81c39.784,0,72.15-32.366,72.15-72.15V110.63c0-4.427-3.589-8.017-8.017-8.017
	H67.875c-4.427,0-8.017,3.589-8.017,8.017v98.338c0,39.784,32.366,72.15,72.15,72.15h4.81v25.596
	c-7.235,2.073-14.322,4.323-21.205,6.783c-4.169,1.491-6.341,6.079-4.851,10.247c1.491,4.17,6.08,6.339,10.247,4.851
	c9.368-3.349,19.118-6.312,29.161-8.909l12.409,74.45c0.645,3.866,3.988,6.699,7.908,6.699s7.263-2.833,7.908-6.699l13.807-82.841
	c11.031-1.595,22.291-2.767,33.711-3.519l22.248,103.825c0.792,3.696,4.059,6.337,7.838,6.337c3.78,0,7.047-2.641,7.839-6.337
	l22.253-103.852c11.444,0.747,22.695,1.926,33.697,3.51l13.813,82.879c0.646,3.866,3.989,6.699,7.908,6.699
	c3.919,0,7.263-2.834,7.908-6.699l12.416-74.503c24.091,6.227,46.296,14.624,65.736,25.014
	c44.107,23.57,68.396,54.344,68.396,86.649c0,32.971-12.167,47.574-46.494,55.807c-36.962,8.863-97.617,8.865-189.544,8.861h-7.678
	c-86.221,0-148.525,0.003-186.588-8.873c-35.714-8.329-49.629-23.972-49.629-55.795c0-31.488,23.247-61.695,65.459-85.056
	c3.875-2.143,5.277-7.022,3.133-10.895c-2.143-3.875-7.023-5.278-10.895-3.133C26.185,358.524,0,393.713,0,431.298
	c0,20.259,5.013,35.747,15.327,47.35c10.076,11.336,24.914,18.98,46.695,24.06c39.307,9.166,98.019,9.292,186.477,9.292
	c3.81,0,7.62,0,11.43,0c93.037,0.013,154.477,0.003,193.283-9.304c41.207-9.882,58.788-31.234,58.788-71.398
	C511.999,392.795,484.7,357,435.129,330.505z M315.323,16.568c0-0.295,0.241-0.534,0.534-0.534h34.204
	c0.294,0,0.534,0.239,0.534,0.534v26.188h-35.273V16.568z M285.929,161.403h12.827c4.428,0,8.017-3.589,8.017-8.017V58.789h0.534
	h51.307h0.534v94.597c0,4.427,3.588,8.017,8.017,8.017h12.827c16.798,0,30.463,13.666,30.463,30.463v21.912H255.465v-21.912
	C255.465,175.068,269.132,161.403,285.929,161.403z M213.779,118.647v35.273H75.892v-35.273H213.779z M75.892,208.968v-39.015
	h137.887v39.015c0,30.943-25.173,56.117-56.117,56.117h-25.653C101.066,265.085,75.892,239.912,75.892,208.968z M170.489,344.055
	l-4.675-28.051c3.201-0.683,6.423-1.335,9.675-1.943L170.489,344.055z M256,371.659l-13.855-64.658
	c4.602-0.138,9.218-0.229,13.855-0.229c4.642,0,9.261,0.077,13.858,0.213L256,371.659z M341.511,344.055l-5.006-30.039
	c3.258,0.608,6.487,1.255,9.69,1.937L341.511,344.055z"/>
<path d="M84.977,377.319c-4.427,0-8.017,3.589-8.017,8.017v1.069c0,4.427,3.589,8.017,8.017,8.017s8.017-3.589,8.017-8.017v-1.069
	C92.994,380.908,89.405,377.319,84.977,377.319z"/>
<path d="M161.403,419.54v-1.069c0-4.427-3.589-8.017-8.017-8.017c-4.427,0-8.017,3.589-8.017,8.017v1.069
	c0,4.427,3.589,8.017,8.017,8.017C157.814,427.557,161.403,423.967,161.403,419.54z"/>
<path d="M85.512,444.124v1.069c0,4.427,3.589,8.017,8.017,8.017s8.017-3.589,8.017-8.017v-1.069c0-4.427-3.589-8.017-8.017-8.017
	S85.512,439.697,85.512,444.124z"/>
<path d="M229.812,428.091v-1.069c0-4.427-3.589-8.017-8.017-8.017c-4.427,0-8.017,3.589-8.017,8.017v1.069
	c0,4.427,3.589,8.017,8.017,8.017C226.223,436.108,229.812,432.518,229.812,428.091z"/>
<path d="M178.505,468.709v-1.069c0-4.427-3.589-8.017-8.017-8.017c-4.427,0-8.017,3.589-8.017,8.017v1.069
	c0,4.427,3.589,8.017,8.017,8.017C174.916,476.726,178.505,473.136,178.505,468.709z"/>
<path d="M298.221,468.709v-1.069c0-4.427-3.588-8.017-8.017-8.017c-4.428,0-8.017,3.589-8.017,8.017v1.069
	c0,4.427,3.588,8.017,8.017,8.017C294.633,476.726,298.221,473.136,298.221,468.709z"/>
<path d="M323.874,419.54v-1.069c0-4.427-3.588-8.017-8.017-8.017c-4.428,0-8.017,3.589-8.017,8.017v1.069
	c0,4.427,3.588,8.017,8.017,8.017C320.286,427.557,323.874,423.967,323.874,419.54z"/>
<path d="M400.835,393.886v-1.069c0-4.427-3.588-8.017-8.017-8.017c-4.428,0-8.017,3.589-8.017,8.017v1.069
	c0,4.427,3.588,8.017,8.017,8.017C397.246,401.903,400.835,398.314,400.835,393.886z"/>
<path d="M383.732,453.744v-1.069c0-4.427-3.588-8.017-8.017-8.017c-4.428,0-8.017,3.589-8.017,8.017v1.069
	c0,4.427,3.588,8.017,8.017,8.017C380.144,461.761,383.732,458.172,383.732,453.744z"/>
<path d="M452.141,428.091v-1.069c0-4.427-3.588-8.017-8.017-8.017c-4.428,0-8.017,3.589-8.017,8.017v1.069
	c0,4.427,3.588,8.017,8.017,8.017C448.553,436.108,452.141,432.518,452.141,428.091z"/>
<g>
</g>
<g>
</g>
<g>
</g>
<g>
</g>
<g>
</g>
<g>
</g>
<g>
</g>
<g>
</g>
<g>
</g>
<g>
</g>
<g>
</g>
<g>
</g>
<g>
</g>
<g>
</g>
<g>
</g>
</svg>
