<?xml version="1.0" encoding="iso-8859-1"?>
<!-- Generator: Adobe Illustrator 19.0.0, SVG Export Plug-In . SVG Version: 6.00 Build 0)  -->
<svg version="1.1" id="Layer_1" xmlns="http://www.w3.org/2000/svg" xmlns:xlink="http://www.w3.org/1999/xlink" x="0px" y="0px"
	 viewBox="0 0 512 512" style="enable-background:new 0 0 512 512;" xml:space="preserve">
<path style="fill:#5A3C3D;" d="M289.183,279.614c0-6.069-4.966-11.035-11.035-11.035h-56.863c-6.069,0-11.035,4.966-11.035,11.035
	v221.351c0,6.069,4.966,11.035,11.035,11.035h56.863c6.069,0,11.035-4.966,11.035-11.035V279.614z"/>
<g>
	<path style="fill:#FF7F3F;" d="M411.519,78.622c0-15.438-12.516-53.361-27.953-53.361c-15.438,0-27.953,37.923-27.953,53.361
		s12.515,27.953,27.953,27.953C399.003,106.575,411.519,94.06,411.519,78.622z"/>
	<path style="fill:#FF7F3F;" d="M344.389,120.035c-1.425,0-2.834,0.184-4.229,0.525C321.564,61.607,288.015,0,249.716,0
		c-30.97,0-58.834,40.291-78.199,86.882c-6.136-7-12.885-11.377-19.973-11.377c-28.202,0-51.063,69.276-51.063,97.48
		c0,26.338,19.942,48.011,45.547,50.762c9.974,48.128,52.606,84.298,103.688,84.298c33.902,0,64.08-15.933,83.464-40.717
		c3.608,0.809,7.357,1.25,11.21,1.25c28.202,0,51.064-22.862,51.064-51.063C395.455,189.311,372.591,120.035,344.389,120.035z"/>
</g>
<path style="fill:#FF671B;" d="M249.716,235.374c-24.045,0-43.607-19.559-43.607-43.605c0-15.71,6.649-49.066,19.363-82.42
	c8.891-23.326,15.418-31.661,24.243-31.661c8.824,0,15.354,8.335,24.245,31.661c12.713,33.354,19.365,66.709,19.365,82.42
	C293.326,215.815,273.761,235.374,249.716,235.374z"/>
<path style="opacity:0.2;enable-background:new    ;" d="M243.095,367.095c-4.571,0-8.276-3.705-8.276-8.276v-23.383
	c0-4.572,3.706-8.276,8.276-8.276s8.276,3.705,8.276,8.276v23.383C251.371,363.391,247.666,367.095,243.095,367.095z"/>
<path style="opacity:0.2;enable-background:new    ;" d="M262.958,461.602c-4.572,0-8.276-3.704-8.276-8.276v-23.383
	c0-4.572,3.705-8.276,8.276-8.276s8.276,3.704,8.276,8.276v23.383C271.235,457.897,267.53,461.602,262.958,461.602z"/>
<g>
</g>
<g>
</g>
<g>
</g>
<g>
</g>
<g>
</g>
<g>
</g>
<g>
</g>
<g>
</g>
<g>
</g>
<g>
</g>
<g>
</g>
<g>
</g>
<g>
</g>
<g>
</g>
<g>
</g>
</svg>
