<?xml version="1.0" encoding="utf-8"?>
<!-- Generator: Adobe Illustrator 16.0.0, SVG Export Plug-In . SVG Version: 6.00 Build 0)  -->
<!DOCTYPE svg PUBLIC "-//W3C//DTD SVG 1.1//EN" "http://www.w3.org/Graphics/SVG/1.1/DTD/svg11.dtd">
<svg version="1.1" id="svg1"
  xmlns:cc="http://web.resource.org/cc/"
  xmlns:ns1="http://sozi.baierouge.fr"
  xmlns:dc="http://purl.org/dc/elements/1.1/"
  xmlns:rdf="http://www.w3.org/1999/02/22-rdf-syntax-ns#"
  xmlns:inkscape="http://www.inkscape.org/namespaces/inkscape"
  xmlns:sodipodi="http://sodipodi.sourceforge.net/DTD/sodipodi-0.dtd" inkscape:version="0.40" sodipodi:version="0.32" sodipodi:docname="reload.svg" sodipodi:docbase="/home/danny/work/flat/SVG/mono/scalable/actions"
  xmlns="http://www.w3.org/2000/svg"
  xmlns:xlink="http://www.w3.org/1999/xlink" x="0px" y="0px" width="21px" height="21px" viewBox="0 0 595.279 841.891" enable-background="new 0 0 595.279 841.891" xml:space="preserve">
  <sodipodi:namedview bordercolor="#666666" inkscape:cy="29.527666" inkscape:zoom="3.4732669" borderopacity="1.0" pagecolor="#ffffff" inkscape:cx="63.797828" id="base" inkscape:window-y="0" inkscape:window-height="699" inkscape:pageshadow="2" inkscape:window-x="0" inkscape:window-width="1024" inkscape:current-layer="svg1" inkscape:pageopacity="0.0">
  </sodipodi:namedview>
  <circle fill="none" stroke="#000000" stroke-width="19.8425" stroke-miterlimit="10" cx="298.14" cy="420.445" r="288"/>
  <path fill-rule="evenodd" clip-rule="evenodd" d="M332.365,699.245c0-12.694,0-48.263,0-59.833c0-30.658,0.038-61.316-0.018-91.974
	c-0.026-14.049-7.924-22.05-21.803-22.19c-9.084-0.092-18.169-0.099-27.252,0.002c-13.532,0.152-21.595,8.147-21.621,21.679
	c-0.075,39.969-0.027,79.938-0.028,119.907c0,2.476,0,28.951,0,32.407c-2.856,0-5.265,0-7.674,0
	c-29.523-0.001-59.045-23.978-88.567-24.011c-22.825-0.027-36.504-13.652-36.512-36.394c-0.022-58.363-0.007-116.727-0.006-175.092
	c0-2.46,0-4.917,0-8.354c-12.443,0-24.435-0.513-36.354,0.188c-7.354,0.433-11.353-2.88-14.711-8.511
	c-8.191-13.731-5.9-30.074,6.276-42.28c30.476-30.545,61.028-61.014,91.541-91.522c31.958-31.952,63.889-63.934,95.868-95.866
	c15.763-15.74,35.256-15.735,51.099,0.09c62.34,62.273,124.649,124.577,186.936,186.901c13.704,13.713,15.354,33.189,3.642,46.544
	c-2.058,2.345-5.979,4.122-9.122,4.258c-12.239,0.531-24.512,0.291-36.772,0.366c-0.413,0.001-0.824,0.306-2.178,0.844
	c0,2.246,0,4.871,0,7.495c0,57.91,0.013,115.819-0.004,173.729c-0.007,24.371-13.147,37.593-37.343,37.609
	c-29.295,0.019-58.591,24.006-87.887,24.006C337.651,699.245,335.427,699.245,332.365,699.245z"/>
  <path fill-rule="evenodd" clip-rule="evenodd" fill="#FFFFFF" d="M290.026,323.698c8,4.535,14.127,8.037,20.283,11.488
	c6.155,3.449,8.155,8.516,4.574,14.617c-3.404,5.795-8.624,6.042-14.311,2.941c-13.941-7.603-27.864-15.247-41.937-22.604
	c-5.912-3.091-7.026-7.614-4.27-12.912c7.777-14.95,15.852-29.746,23.984-44.505c2.972-5.394,7.841-6.813,13.277-4.165
	c5.67,2.764,6.743,7.874,4.318,13.221c-3.174,7.001-7.028,13.692-10.101,19.58c14.924,1.731,29.976,1.768,44.086,5.428
	c48.433,12.561,79.392,59.436,73.646,109.489c-5.607,48.855-48.584,88.138-97.656,89.268c-50.887,1.17-94.238-34.185-103.124-83.845
	c-3.104-17.345-2.249-34.422,4.375-50.623c1.499-3.665,8.547-7.618,12.503-7.125c6.052,0.757,7.946,6.816,5.831,13.068
	c-0.312,0.921-0.614,1.846-0.878,2.78c-15.611,55.157,25.913,107,83.34,104.051c45.97-2.363,79.673-43.763,74.502-91.522
	C377.815,349.364,334.207,315.856,290.026,323.698z"/>
</svg>
