<?xml version="1.0" encoding="iso-8859-1"?>
<!-- Generator: Adobe Illustrator 19.0.0, SVG Export Plug-In . SVG Version: 6.00 Build 0)  -->
<svg version="1.1" id="Layer_1"
  xmlns="http://www.w3.org/2000/svg"
  xmlns:xlink="http://www.w3.org/1999/xlink" x="0px" y="0px" viewBox="0 0 512 512" style="enable-background:new 0 0 512 512;" xml:space="preserve">
  <g>
    <g>
      <polygon style="fill:#E0E0E0;" points="448.325,388.414 381.112,388.414 360.42,388.414 150.994,388.414 133.939,388.414 
			63.018,388.414 82.501,459.034 114.465,459.034 170.468,459.034 340.937,459.034 361.638,459.034 428.842,459.034 		"/>
      <polygon style="fill:#E0E0E0;" points="63.016,123.586 130.291,123.586 150.991,123.586 360.417,123.586 377.463,123.586 
			448.322,123.586 428.84,52.966 396.946,52.966 340.935,52.966 170.474,52.966 149.773,52.966 82.498,52.966 		"/>
    </g>
    <g>
      <path style="fill:#FFFFFF;" d="M396.944,97.103c-4.873,0-8.828-3.955-8.828-8.828c0-4.873,3.955-8.828,8.828-8.828
			s8.828,3.955,8.828,8.828C405.771,93.149,401.817,97.103,396.944,97.103"/>
      <path style="fill:#FFFFFF;" d="M299.84,97.103c-4.873,0-8.828-3.955-8.828-8.828c0-4.873,3.955-8.828,8.828-8.828
			s8.828,3.955,8.828,8.828C308.668,93.149,304.713,97.103,299.84,97.103"/>
      <path style="fill:#FFFFFF;" d="M220.392,97.103c-4.873,0-8.828-3.955-8.828-8.828c0-4.873,3.955-8.828,8.828-8.828
			s8.828,3.955,8.828,8.828C229.22,93.149,225.265,97.103,220.392,97.103"/>
      <path style="fill:#FFFFFF;" d="M123.289,97.103c-4.873,0-8.828-3.955-8.828-8.828c0-4.873,3.955-8.828,8.828-8.828
			s8.828,3.955,8.828,8.828C132.116,93.149,128.161,97.103,123.289,97.103"/>
      <path style="fill:#FFFFFF;" d="M396.944,432.552c-4.873,0-8.828-3.955-8.828-8.828c0-4.873,3.955-8.828,8.828-8.828
			s8.828,3.955,8.828,8.828C405.771,428.597,401.817,432.552,396.944,432.552"/>
      <path style="fill:#FFFFFF;" d="M299.84,432.552c-4.873,0-8.828-3.955-8.828-8.828c0-4.873,3.955-8.828,8.828-8.828
			s8.828,3.955,8.828,8.828C308.668,428.597,304.713,432.552,299.84,432.552"/>
      <path style="fill:#FFFFFF;" d="M220.392,432.552c-4.873,0-8.828-3.955-8.828-8.828c0-4.873,3.955-8.828,8.828-8.828
			s8.828,3.955,8.828,8.828C229.22,428.597,225.265,432.552,220.392,432.552"/>
      <path style="fill:#FFFFFF;" d="M123.289,432.552c-4.873,0-8.828-3.955-8.828-8.828c0-4.873,3.955-8.828,8.828-8.828
			s8.828,3.955,8.828,8.828C132.116,428.597,128.161,432.552,123.289,432.552"/>
    </g>
    <polygon style="fill:#6D3C17;" points="256,459.034 170.469,459.034 185.079,512 256,512 	"/>
    <g>
      <polygon style="fill:#9E5A23;" points="340.935,459.034 340.935,459.034 255.978,459.034 255.978,512 326.325,512 		"/>
      <polygon style="fill:#9E5A23;" points="170.772,459.034 114.761,459.034 82.496,459.034 97.106,512 185.382,512 		"/>
      <path style="fill:#9E5A23;" d="M147.143,138.624l4.149-15.042h-20.701H63.017l-4.149,15.042
			c-19.668,74.284-19.615,155.321,0,234.752l4.149,15.033h71.23h17.046l-4.149-15.033
			C127.052,300.557,127.052,211.443,147.143,138.624"/>
      <polygon style="fill:#9E5A23;" points="97.109,0 82.499,52.966 150.074,52.966 170.775,52.966 185.385,0 		"/>
    </g>
    <g>
      <path style="fill:#6D3C17;" d="M452.474,138.624l-4.149-15.042h-71.23h-17.046l4.149,15.042
			c20.092,72.819,20.092,161.933,0,234.752l-4.149,15.033h20.701h67.575l4.149-15.033
			C473.016,298.906,472.971,217.869,452.474,138.624"/>
      <polygon style="fill:#6D3C17;" points="414.233,0 325.958,0 340.567,52.966 396.578,52.966 428.843,52.966 		"/>
      <polygon style="fill:#6D3C17;" points="361.267,459.034 340.566,459.034 325.957,512 414.233,512 428.842,459.034 		"/>
      <path style="fill:#6D3C17;" d="M256.004,123.586H151.291l-4.149,15.042c-20.092,72.81-20.092,161.933,0,234.743l4.149,15.042
			h104.713V123.586z"/>
    </g>
    <g>
      <path style="fill:#9E5A23;" d="M364.561,373.376c20.595-74.655,18.67-167.071,0-234.752l-4.149-15.033l-104.439,0.053v264.828
			l104.439-0.053L364.561,373.376z"/>
      <path style="fill:#9E5A23;" d="M450.207,282.483c-9.754,0-17.655-11.855-17.655-26.483s7.901-26.483,17.655-26.483
			c9.754,0,17.655,11.855,17.655,26.483S459.961,282.483,450.207,282.483"/>
      <polygon style="fill:#9E5A23;" points="340.93,52.966 326.32,0 256,0 256,52.966 		"/>
    </g>
    <polygon style="fill:#6D3C17;" points="170.773,52.966 256.003,52.966 256.003,0 185.383,0 	"/>
  </g>
  <g>
  </g>
  <g>
  </g>
  <g>
  </g>
  <g>
  </g>
  <g>
  </g>
  <g>
  </g>
  <g>
  </g>
  <g>
  </g>
  <g>
  </g>
  <g>
  </g>
  <g>
  </g>
  <g>
  </g>
  <g>
  </g>
  <g>
  </g>
  <g>
  </g>
</svg>
