<?xml version="1.0" encoding="iso-8859-1"?>
<!-- Generator: Adobe Illustrator 19.0.0, SVG Export Plug-In . SVG Version: 6.00 Build 0)  -->
<svg version="1.1" id="Layer_1" xmlns="http://www.w3.org/2000/svg" xmlns:xlink="http://www.w3.org/1999/xlink" x="0px" y="0px"
	 viewBox="0 0 512 512" style="enable-background:new 0 0 512 512;" xml:space="preserve">
<g transform="translate(0 -1)">
	<g>
		<path style="fill:#BDC3C7;" d="M51.2,171.667c-4.71,0-8.533-3.814-8.533-8.533v-51.2c0-4.719,3.823-8.533,8.533-8.533
			s8.533,3.814,8.533,8.533v51.2C59.733,167.852,55.91,171.667,51.2,171.667"/>
		<path style="fill:#BDC3C7;" d="M256,171.667c-4.71,0-8.533-3.814-8.533-8.533v-51.2c0-4.719,3.823-8.533,8.533-8.533
			c4.71,0,8.533,3.814,8.533,8.533v51.2C264.533,167.852,260.71,171.667,256,171.667"/>
		<path style="fill:#BDC3C7;" d="M307.2,171.667c-4.71,0-8.533-3.814-8.533-8.533v-51.2c0-4.719,3.823-8.533,8.533-8.533
			s8.533,3.814,8.533,8.533v51.2C315.733,167.852,311.91,171.667,307.2,171.667"/>
		<path style="fill:#BDC3C7;" d="M358.4,171.667c-4.71,0-8.533-3.814-8.533-8.533v-51.2c0-4.719,3.823-8.533,8.533-8.533
			s8.533,3.814,8.533,8.533v51.2C366.933,167.852,363.11,171.667,358.4,171.667"/>
		<path style="fill:#BDC3C7;" d="M409.6,171.667c-4.71,0-8.533-3.814-8.533-8.533v-51.2c0-4.719,3.823-8.533,8.533-8.533
			c4.71,0,8.533,3.814,8.533,8.533v51.2C418.133,167.852,414.31,171.667,409.6,171.667"/>
		<path style="fill:#BDC3C7;" d="M460.8,171.667c-4.71,0-8.533-3.814-8.533-8.533v-51.2c0-4.719,3.823-8.533,8.533-8.533
			s8.533,3.814,8.533,8.533v51.2C469.333,167.852,465.51,171.667,460.8,171.667"/>
		<path style="fill:#BDC3C7;" d="M153.6,171.667c-4.71,0-8.533-3.814-8.533-8.533v-51.2c0-4.719,3.823-8.533,8.533-8.533
			s8.533,3.814,8.533,8.533v51.2C162.133,167.852,158.31,171.667,153.6,171.667"/>
		<path style="fill:#BDC3C7;" d="M102.4,171.667c-4.71,0-8.533-3.814-8.533-8.533v-51.2c0-4.719,3.823-8.533,8.533-8.533
			c4.71,0,8.533,3.814,8.533,8.533v51.2C110.933,167.852,107.11,171.667,102.4,171.667"/>
		<path style="fill:#BDC3C7;" d="M204.8,171.667c-4.71,0-8.533-3.814-8.533-8.533v-51.2c0-4.719,3.823-8.533,8.533-8.533
			c4.71,0,8.533,3.814,8.533,8.533v51.2C213.333,167.852,209.51,171.667,204.8,171.667"/>
		<path style="fill:#BDC3C7;" d="M503.467,120.467H8.533c-4.71,0-8.533-3.814-8.533-8.533s3.823-8.533,8.533-8.533h494.933
			c4.71,0,8.533,3.814,8.533,8.533S508.177,120.467,503.467,120.467"/>
	</g>
	<polygon style="fill:#D39E5F;" points="8.533,197.264 503.467,197.264 503.467,163.131 8.533,163.131 	"/>
	<path style="fill:#FAC176;" d="M110.932,410.6H25.599V197.267h460.8V410.6h-85.333c0-80.179-64.879-145.067-145.067-145.067
		C175.82,265.533,110.932,330.421,110.932,410.6"/>
	<g>
		<path style="fill:#D39E5F;" d="M93.867,248.467H59.733c-4.71,0-8.533-3.814-8.533-8.533s3.823-8.533,8.533-8.533h34.133
			c4.71,0,8.533,3.814,8.533,8.533S98.577,248.467,93.867,248.467"/>
		<path style="fill:#D39E5F;" d="M119.467,291.133H85.333c-4.71,0-8.533-3.814-8.533-8.533c0-4.719,3.823-8.533,8.533-8.533h34.133
			c4.71,0,8.533,3.814,8.533,8.533C128,287.319,124.177,291.133,119.467,291.133"/>
		<path style="fill:#D39E5F;" d="M452.267,248.467h-34.133c-4.71,0-8.533-3.814-8.533-8.533s3.823-8.533,8.533-8.533h34.133
			c4.71,0,8.533,3.814,8.533,8.533S456.977,248.467,452.267,248.467"/>
		<path style="fill:#D39E5F;" d="M426.667,291.133h-34.133c-4.71,0-8.533-3.814-8.533-8.533c0-4.719,3.823-8.533,8.533-8.533h34.133
			c4.71,0,8.533,3.814,8.533,8.533C435.2,287.319,431.377,291.133,426.667,291.133"/>
	</g>
</g>
<g>
</g>
<g>
</g>
<g>
</g>
<g>
</g>
<g>
</g>
<g>
</g>
<g>
</g>
<g>
</g>
<g>
</g>
<g>
</g>
<g>
</g>
<g>
</g>
<g>
</g>
<g>
</g>
<g>
</g>
</svg>
