<?xml version="1.0" encoding="iso-8859-1"?>
<!-- Generator: Adobe Illustrator 19.0.0, SVG Export Plug-In . SVG Version: 6.00 Build 0)  -->
<svg version="1.1" id="Layer_1" xmlns="http://www.w3.org/2000/svg" xmlns:xlink="http://www.w3.org/1999/xlink" x="0px" y="0px"
	 viewBox="0 0 512 512" style="enable-background:new 0 0 512 512;" xml:space="preserve">
<g>
	<g>
		<path d="M466.355,110.279l24.587-19.847c8.05-6.499,9.307-18.291,2.81-26.342c-6.499-8.051-18.293-9.307-26.342-2.811
			l-24.613,19.868C396.052,31.242,329.611,0,256,0C114.842,0,0,114.842,0,256s114.842,256,256,256s256-114.842,256-256
			C512,201.894,495.113,151.666,466.355,110.279z M256,474.537c-120.501,0-218.537-98.036-218.537-218.537
			S135.499,37.463,256,37.463c61.852,0,117.779,25.835,157.574,67.273l-35.616,28.748C346.663,102.33,303.542,83.046,256,83.046
			c-95.367,0-172.954,77.587-172.954,172.954S160.633,428.954,256,428.954S428.954,351.367,428.954,256
			c0-34.371-10.081-66.433-27.438-93.385l35.621-28.753c23.603,34.891,37.4,76.934,37.4,122.138
			C474.537,376.501,376.501,474.537,256,474.537z M241.424,267.765c6.499,8.051,18.292,9.307,26.342,2.811l38.11-30.761
			c1.66,5.101,2.568,10.537,2.568,16.185c0,28.918-23.527,52.445-52.444,52.445S203.556,284.919,203.556,256
			s23.527-52.445,52.444-52.445c9.593,0,18.586,2.601,26.331,7.118l-38.097,30.751C236.184,247.922,234.927,259.716,241.424,267.765
			z M255.999,166.092c-49.575,0-89.907,40.332-89.907,89.908s40.332,89.908,89.907,89.908c49.575,0,89.907-40.332,89.907-89.908
			c0-14.618-3.529-28.419-9.745-40.633l35.992-29.052c12.271,20.374,19.337,44.218,19.337,69.684
			c0,74.71-60.781,135.49-135.49,135.49S120.51,330.71,120.51,256S181.29,120.51,256,120.51c35.776,0,68.352,13.944,92.595,36.675
			l-35.977,29.039C297.149,173.648,277.443,166.092,255.999,166.092z"/>
	</g>
</g>
<g>
</g>
<g>
</g>
<g>
</g>
<g>
</g>
<g>
</g>
<g>
</g>
<g>
</g>
<g>
</g>
<g>
</g>
<g>
</g>
<g>
</g>
<g>
</g>
<g>
</g>
<g>
</g>
<g>
</g>
</svg>
