<?xml version="1.0" encoding="iso-8859-1"?>
<!-- Generator: Adobe Illustrator 19.0.0, SVG Export Plug-In . SVG Version: 6.00 Build 0)  -->
<svg version="1.1" id="Layer_1" xmlns="http://www.w3.org/2000/svg" xmlns:xlink="http://www.w3.org/1999/xlink" x="0px" y="0px"
	 viewBox="0 0 486.4 486.4" style="enable-background:new 0 0 486.4 486.4;" xml:space="preserve">
<g>
	<g>
		<g>
			<path style="fill:#D71920;" d="M243.2,438.476l188.9-182.118c25.243-27.026,44.8-56.565,44.8-90.532
				c0-65.116-52.787-117.903-117.903-117.903c-57.509,0-105.393,41.177-115.797,95.655c-10.405-54.477-58.288-95.655-115.797-95.655
				C62.287,47.924,9.5,100.71,9.5,165.826c0,33.967,19.557,63.507,44.8,90.532L243.2,438.476z"/>
			<path d="M243.2,447.977c-2.377,0-4.754-0.887-6.593-2.661L47.706,263.198c-0.12-0.115-0.236-0.233-0.349-0.355
				C27.028,241.078,0,207.341,0,165.826C0,95.576,57.153,38.424,127.403,38.424c50.61,0,95.424,29.866,115.797,74.191
				c20.373-44.325,65.187-74.191,115.797-74.191c70.25,0,127.403,57.153,127.403,127.403c0,41.514-27.028,75.252-47.357,97.017
				c-0.113,0.122-0.229,0.24-0.349,0.355L249.793,445.316C247.954,447.09,245.577,447.977,243.2,447.977z M61.074,249.694
				L243.2,425.28l182.126-175.586c28.703-30.779,42.074-57.433,42.074-83.868c0-59.773-48.629-108.403-108.403-108.403
				c-51.959,0-96.734,36.983-106.466,87.937c-0.855,4.479-4.771,7.718-9.331,7.718s-8.476-3.239-9.331-7.718
				c-9.732-50.954-54.507-87.937-106.466-87.937C67.629,57.424,19,106.053,19,165.826C19,192.261,32.371,218.916,61.074,249.694z"/>
		</g>
		<g>
			<path d="M377.149,267.9c-2.378,0-4.758-0.887-6.603-2.671l-9.731-9.41c-3.772-3.647-3.873-9.661-0.225-13.433
				c3.647-3.771,9.661-3.872,13.433-0.225l9.731,9.41c3.772,3.647,3.873,9.661,0.225,13.433
				C382.115,266.931,379.634,267.9,377.149,267.9z"/>
		</g>
		<g>
			<path d="M303.204,322.704c-2.432,0-4.862-0.927-6.718-2.782l-92.762-92.763l-14.783,14.783l-11.063,11.611
				c-3.62,3.798-9.631,3.945-13.432,0.325c-3.798-3.619-3.944-9.633-0.325-13.431l11.143-11.695c0.053-0.056,0.107-0.11,0.16-0.165
				l21.581-21.58c3.713-3.71,9.726-3.709,13.435,0l92.762,92.763l30.178-30.178c3.713-3.71,9.726-3.71,13.435,0
				c3.71,3.71,3.71,9.725,0,13.435l-36.896,36.896C308.066,321.777,305.636,322.704,303.204,322.704z"/>
		</g>
		<g>
			<path d="M145.299,281.648H130.15c-5.246,0-9.5-4.253-9.5-9.5s4.254-9.5,9.5-9.5h15.149c5.246,0,9.5,4.253,9.5,9.5
				S150.545,281.648,145.299,281.648z"/>
		</g>
	</g>
	<path d="M164.346,100.576c-1.224,0-2.468-0.238-3.666-0.74c-9.166-3.839-18.9-5.786-28.932-5.786c-5.246,0-9.5-4.253-9.5-9.5
		s4.254-9.5,9.5-9.5c12.566,0,24.771,2.443,36.273,7.261c4.84,2.027,7.119,7.594,5.092,12.433
		C171.587,98.384,168.06,100.576,164.346,100.576z"/>
	<path d="M47.304,178.493c-5.246,0-9.5-4.253-9.5-9.5c0-17.983,5.1-35.463,14.747-50.549C61.936,103.767,75.169,92,90.816,84.415
		c4.719-2.287,10.404-0.317,12.693,4.405c2.288,4.721,0.316,10.404-4.405,12.692c-26.092,12.647-42.3,38.505-42.3,67.482
		C56.804,174.24,52.551,178.493,47.304,178.493z"/>
</g>
<g>
</g>
<g>
</g>
<g>
</g>
<g>
</g>
<g>
</g>
<g>
</g>
<g>
</g>
<g>
</g>
<g>
</g>
<g>
</g>
<g>
</g>
<g>
</g>
<g>
</g>
<g>
</g>
<g>
</g>
</svg>
