<?xml version="1.0" encoding="utf-8"?>
<!-- Generator: Adobe Illustrator 16.0.0, SVG Export Plug-In . SVG Version: 6.00 Build 0)  -->
<!DOCTYPE svg PUBLIC "-//W3C//DTD SVG 1.1//EN" "http://www.w3.org/Graphics/SVG/1.1/DTD/svg11.dtd">
<svg version="1.1" id="Capa_1"
  xmlns="http://www.w3.org/2000/svg"
  xmlns:xlink="http://www.w3.org/1999/xlink" x="0px" y="0px" viewBox="0 0 595.279 841.891" enable-background="new 0 0 595.279 841.891" xml:space="preserve">
  <g>
    <g>
      <path d="M297.64,123.305c-97.199,0-183.653,46.849-238.013,119.136c-0.109,0.129-0.258,0.208-0.357,0.347
			c-1.2,1.597-2.262,3.294-3.423,4.911c-2.073,2.887-4.127,5.784-6.092,8.741c-1.488,2.242-2.927,4.514-4.355,6.786
			c-1.854,2.957-3.65,5.963-5.407,8.989c-1.16,2.004-2.351,3.988-3.462,6.012c-2.649,4.832-5.169,9.743-7.561,14.723
			c-0.783,1.637-1.488,3.294-2.232,4.941c-1.775,3.889-3.472,7.808-5.079,11.787c-0.734,1.815-1.459,3.631-2.153,5.457
			c-1.785,4.673-3.462,9.406-5.01,14.198c-0.288,0.873-0.615,1.736-0.883,2.609c-1.767,5.635-3.344,11.36-4.782,17.124
			c-0.397,1.597-0.744,3.205-1.111,4.802c-1.012,4.385-1.935,8.811-2.748,13.265c-0.317,1.756-0.655,3.492-0.943,5.258
			c-0.942,5.695-1.756,11.429-2.36,17.223c-0.021,0.179-0.06,0.357-0.07,0.536l-0.02,0.139c-0.05,0.516-0.079,1.042-0.129,1.567
			l-0.794,9.247h0.08c-0.188,2.907-0.348,5.823-0.457,8.751C0.11,413.663,0,417.363,0,420.945c0,6.617,0.298,13.165,0.724,19.674
			c0.011,0.089,0,0.169,0.011,0.258l0.396,5.109c0.01,0.119,0.02,0.238,0.029,0.348c0.238,2.798,0.496,5.596,0.813,8.373
			c0.348,3.136,0.734,6.32,1.211,9.634l0.169,1.26c0.01,0.06,0.02,0.119,0.029,0.179c0.933,6.132,2.094,12.193,3.403,18.196
			c0.05,0.238,0.079,0.476,0.129,0.714l1.042,4.505c0.139,0.614,0.317,1.24,0.456,1.845c0.506,2.104,1.012,4.207,1.567,6.29
			c0.774,2.957,1.627,6.003,2.59,9.267l0.427,1.498c0.079,0.269,0.188,0.536,0.277,0.804c1.687,5.447,3.562,10.814,5.546,16.122
			c0.169,0.457,0.298,0.923,0.477,1.38l1.339,3.423c0.675,1.706,1.409,3.442,2.124,5.169c0.317,0.773,0.625,1.547,0.952,2.312
			c1.25,2.946,2.579,5.982,4.088,9.246l0.625,1.359c0.248,0.526,0.545,1.022,0.793,1.538c2.263,4.703,4.644,9.326,7.134,13.88
			c0.357,0.665,0.675,1.359,1.042,2.024l1.141,1.964c3.006,5.318,6.171,10.536,9.862,16.222l0.664,1.031
			c0.477,0.715,1.002,1.369,1.479,2.084c2.857,4.246,5.813,8.413,8.88,12.501c0.525,0.704,0.992,1.458,1.527,2.152
			c3.899,5.109,8.155,10.299,12.789,15.587l0.685,0.794c0.694,0.783,1.479,1.518,2.183,2.302c3.482,3.869,7.044,7.659,10.725,11.34
			c1.707,1.706,3.522,3.363,5.288,5.04c2.619,2.5,5.278,4.961,7.987,7.361c1.17,1.042,2.242,2.133,3.433,3.165
			c0.893,0.764,1.855,1.448,2.758,2.202c3.661,3.066,7.392,6.043,11.191,8.93c1.935,1.469,3.899,2.887,5.873,4.306
			c3.522,2.54,7.094,5.021,10.726,7.411c0.952,0.625,1.865,1.34,2.827,1.955l0.556,0.356c0.854,0.546,1.776,1.022,2.639,1.558
			c4.644,2.897,9.347,5.695,14.158,8.334c0.635,0.348,1.27,0.705,1.915,1.052c5.149,2.778,10.417,5.368,15.745,7.858
			c0.704,0.327,1.379,0.724,2.093,1.041l13.989,6.39v-0.516c33.822,13.374,70.61,20.814,109.135,20.814
			c164.119,0,297.64-133.521,297.64-297.64C595.28,256.826,461.759,123.305,297.64,123.305z M364.193,348.589 M437.977,544.237
			 M297.64,698.742c-38.723,0-75.61-7.986-109.135-22.362v-57.008c0.813,0,1.567-0.348,2.361-0.546
			c57.138,26.658,144.177-4.067,158.245-9.376c76.117-0.675,100.633-42.93,105.643-53.694c20.974-20.229,31.54-49.914,31.411-88.31
			c-0.1-28.435-8.086-57.891-23.742-87.536c-7.282-13.801-15.963-40.241-15.963-87.943c0-24.873-8.354-45.182-24.844-60.342
			c-33.852-31.153-90.998-29.714-102.864-29.06c-49.07-16.013-82.406-11.3-101.892,14.426
			c-14.178,18.722-10.209,47.573,9.217,67.128c5.755,5.784,10.814,12.828,15.706,19.644c13.225,18.414,29.674,41.342,60.093,26.937
			c12.461-5.894,32.473-12.064,45.37-15.785v22.77c-8.661,10.031-14.604,23.663-17.709,40.598c-0.427,2.322-1.975,3.8-3.761,4.534
			c-1.577-1.349-3.254-2.56-4.911-3.8c-1.925-1.429-3.879-2.778-5.913-4.038c-2.242-1.419-4.534-2.729-6.875-3.938
			c-0.963-0.486-1.915-0.973-2.887-1.419c-7.441-3.482-15.339-5.883-23.544-7.144c-0.218-0.03-0.437-0.06-0.654-0.089
			c-4.088-0.595-8.245-0.932-12.462-0.932c-0.228,0.01-0.437-0.04-0.654-0.04c-0.09,0-0.169,0.02-0.258,0.02
			c-3.403,0.04-6.836,0.238-10.299,0.685c-0.506,0.04-1.002,0.149-1.498,0.198c-0.734,0.099-1.479,0.169-2.212,0.288
			c-8.374,1.032-16.391,3.512-23.802,7.322c-0.536,0.258-1.052,0.545-1.587,0.813c-0.615,0.337-1.271,0.605-1.876,0.953
			c-2.014,1.062-3.938,2.262-5.863,3.472c-1.925,1.201-3.76,2.5-5.586,3.85c-1.081,0.793-2.202,1.538-3.244,2.381
			c-2.44,0.605-5.069-0.238-6.667-2.212c-30.359-37.215-64.846-56.016-105.384-57.444c-0.248-0.01-6.351-0.03-13.206-0.04
			c-3.879,0-7.024-3.146-7.024-7.024v-65.183c0-0.02-0.01-0.04-0.01-0.07c50.906-64.647,129.801-106.277,218.279-106.277
			c153.176,0,277.798,124.622,277.798,277.798S450.816,698.742,297.64,698.742z"/>
    </g>
  </g>
</svg>
