<?xml version="1.0" encoding="utf-8"?>
<!-- Generator: Adobe Illustrator 16.0.0, SVG Export Plug-In . SVG Version: 6.00 Build 0)  -->
<!DOCTYPE svg PUBLIC "-//W3C//DTD SVG 1.1//EN" "http://www.w3.org/Graphics/SVG/1.1/DTD/svg11.dtd">
<svg version="1.1" id="Capa_1"
  xmlns="http://www.w3.org/2000/svg"
  xmlns:xlink="http://www.w3.org/1999/xlink" x="0px" y="0px" viewBox="0 0 595.279 841.891" enable-background="new 0 0 595.279 841.891" xml:space="preserve">
  <g>
    <path d="M506.756,375.086c-5.469-63.189-42.873-121.462-95.271-156.369c-28.715-19.128-61.984-30.87-96.133-35.311
		C221.234,171.164,122.108,212.504,86.6,304.954c-30.524,79.477-0.428,158.379,54.231,218.554
		c19.725,21.715,22.459,62.545,22.459,90.049v55.776c0,8.564,6.942,15.507,15.506,15.507l115.343,29.605l86.483-29.605
		c8.17,0,14.921-6.339,15.473-14.489c0.744-10.972,1.963-20.62,1.963-20.62c4.221-18.098,19.651-32.609,52.467-27.342
		c34.429,5.523,56.144-35.735,58.075-58.659c0.636-7.562,1.047-41.152,1.047-41.152c1.645-0.94,12.438-3.085,28.168-6.662
		c12.232-2.78,16.541-17.967,7.622-26.79c-35.767-35.38-40.562-51.873-41.45-55.424C499.558,416.063,508.361,393.62,506.756,375.086
		z M440.097,353.97c-4.97,6.294-10.629,7.524-13.622,7.689c-0.986,0.054-1.673,0.992-1.404,1.941
		c1.537,5.416,3.1,20.332-23.603,26.14c-25.043,5.442-40.187,24.921-50.076,34.814c-7.597,7.59-17.873,11.104-28.125,13.41
		c-10.473,2.356-20.85,4.418-29.113,11.859c-8.701,7.839-20.976,51-23.059,58.503c-0.182,0.658-0.782,1.111-1.467,1.111h-12.853
		c-0.721,0-1.346-0.504-1.495-1.211l-6.228-29.458c-0.261-1.237-60.636,3.73-65.284-23.218c-0.163-0.946-1.119-1.532-2.021-1.207
		c-5.805,2.095-24.43,7.249-34.483-8.328c-7.127-11.044-5.233-21.354-4.241-24.915c0.206-0.737-0.165-1.504-0.868-1.806
		c-5.122-2.203-23.629-12.58-21.12-46.72c2.024-27.521,20.639-39.718,18.037-43.95c-7.507-12.207-0.981-32.442,14.398-36.959
		c0.62-0.183,1.06-0.731,1.119-1.375l0.649-7.173c2.136-25.294,35.372-41.324,57.968-30.809c0.872,0.406,1.907-0.027,2.197-0.942
		c2.829-8.967,8.538-11.435,10.059-12.291c7.007-3.942,16.104-3.455,23.346-0.482c0.586,0.24,1.253,0.094,1.685-0.369
		c2.058-2.204,10.496-9.2,24.468-9.2c14.333,0,21.619,6.965,24.166,8.915c0.468,0.358,1.098,0.422,1.623,0.155
		c3.224-1.649,14.997-6.921,26.784-2.86c8.9,3.071,13.952,11.171,15.544,14.12c0.34,0.63,1.055,0.952,1.751,0.788
		c4.227-1.001,18.843-3.809,31.124,1.736c12.976,5.867,17.023,14.344,18.057,17.186c0.21,0.578,0.753,0.966,1.368,0.99
		c2.813,0.112,10.579,0.793,15.379,4.827c8.475,7.125,7.646,12.743,6.67,15.147c-0.297,0.732,0.031,1.572,0.742,1.919
		c3.869,1.898,14.721,8.168,21.451,21.484C448.887,331.776,445.18,347.53,440.097,353.97z"/>
  </g>
  <circle fill="none" stroke="#000000" stroke-width="19.8425" stroke-miterlimit="10" cx="297.14" cy="421.445" r="288"/>
</svg>
