<?xml version="1.0" encoding="utf-8"?>
<!-- Generator: Adobe Illustrator 16.0.0, SVG Export Plug-In . SVG Version: 6.00 Build 0)  -->
<!DOCTYPE svg PUBLIC "-//W3C//DTD SVG 1.1//EN" "http://www.w3.org/Graphics/SVG/1.1/DTD/svg11.dtd">
<svg version="1.1" id="Capa_1"
  xmlns="http://www.w3.org/2000/svg"
  xmlns:xlink="http://www.w3.org/1999/xlink" x="0px" y="0px" width="21px" height="21px" viewBox="0 0 595.279 841.891" enable-background="new 0 0 595.279 841.891" xml:space="preserve">
  <circle fill="none" stroke="#000000" stroke-width="19.8425" stroke-miterlimit="10" cx="298.14" cy="420.445" r="288"/>
  <path fill-rule="evenodd" clip-rule="evenodd" d="M297.243,488.137c-14.088-0.656-27.747-3.038-40.405-9.492
	c-23.664-12.061-35.075-32.288-38.919-57.873c-3.731-24.84,4.269-46.441,17.265-66.805c16.694-26.153,38.071-48.115,61.419-68.303
	c1.821-1.573,3.109-1.875,5.095-0.15c25.616,22.233,49.055,46.348,66.119,76.007c7.456,12.963,13.224,26.718,13.444,41.787
	c0.621,42.132-17.925,77.565-69.842,83.881C306.725,487.76,301.971,487.832,297.243,488.137z"/>
  <path fill-rule="evenodd" clip-rule="evenodd" d="M208.285,555.198c0.061-13.416,4.852-25.576,12.884-36.131
	c6.832-8.975,15.011-16.918,22.545-25.359c1.724-1.931,3.246-1.84,5.591-0.77c32.36,14.78,64.932,14.922,97.689,1.194
	c1.283-0.539,3.632-0.524,4.528,0.288c13.719,12.476,25.896,26.149,31.961,44.153c5.945,17.648,2.23,33.988-7.229,49.397
	c-11.168,18.194-26.818,32.073-43.996,44.216c-10.292,7.277-21.294,13.561-32.077,20.126c-1.236,0.749-3.495,1.141-4.647,0.522
	c-27.647-14.862-53.189-32.473-72.432-57.809C214.266,583.394,208.277,570.457,208.285,555.198z"/>
  <path fill-rule="evenodd" clip-rule="evenodd" d="M78.986,299.096c52.949,0.859,105.436,5.058,154.965,27.548
	c-5.492,8.375-10.85,15.996-15.642,23.957c-11.709,19.46-19.084,40.34-17.428,63.363c1.508,20.961,7.265,40.641,21.037,57.233
	c1.325,1.595,2.665,3.185,3.998,4.774c-0.198,0.509-0.396,1.018-0.595,1.524c-8.276-1.179-16.689-1.765-24.799-3.66
	c-20.477-4.781-38.464-14.862-55.021-27.585c-17.052-13.099-29.168-29.987-38.852-49.099
	c-15.193-29.985-23.264-61.928-28.112-94.896c-0.084-0.564-0.106-1.139-0.088-1.71C78.456,300.285,78.63,300.029,78.986,299.096z"/>
  <path fill-rule="evenodd" clip-rule="evenodd" d="M371.933,476.479c8.286-8.795,14.274-18.181,18.349-28.69
	c4.962-12.814,7.306-26.142,7.404-39.891c0.186-25.875-10.751-47.746-24.591-68.565c-3.002-4.513-6.283-8.836-9.903-13.898
	c49.055-21.363,100.499-25.561,153.401-26.332c-1.377,8.363-2.416,16-3.918,23.545c-4.777,24.011-11.584,47.402-22.139,69.581
	c-7.229,15.208-15.641,29.827-27.675,41.647c-23.503,23.084-50.935,38.96-84.405,42.559c-1.429,0.151-2.862,0.229-4.296,0.305
	C373.747,476.76,373.332,476.651,371.933,476.479z"/>
  <path fill-rule="evenodd" clip-rule="evenodd" d="M586.967,477.112c-7.964,7.342-15.486,14.825-23.578,21.64
	c-25.547,21.521-53.615,38.528-86.405,46.701c-24.128,6.013-48.093,5.194-71.941-1.694c-2.633-0.763-3.954-1.902-4.634-4.73
	c-3.854-16.033-12.526-29.466-23.168-41.776c-1.015-1.176-2.028-2.356-3.441-3.998c5.911-0.747,11.292-1.147,16.564-2.143
	c30.371-5.728,56.524-20.099,78.843-40.946c9.513-8.892,16.979-20.039,24.952-30.487c3.97-5.205,3.542-5.542,9.811-2.845
	c18.317,7.889,35.292,18.117,50.743,30.651c10.13,8.218,19.519,17.351,29.211,26.105
	C584.848,474.429,585.576,475.488,586.967,477.112z"/>
  <path fill-rule="evenodd" clip-rule="evenodd" d="M7.769,475.857c8.539-7.775,16.798-15.729,25.517-23.144
	c14.046-11.939,29.33-22.12,45.807-30.433c4.726-2.384,9.66-4.354,14.4-6.708c2.726-1.353,4.155-0.849,5.747,1.887
	c20.484,35.219,51.575,57.087,89.525,69.747c9.958,3.321,20.631,4.502,31.288,6.731c-0.534,0.672-1.397,1.848-2.355,2.943
	c-11.086,12.705-19.855,26.658-24.015,43.253c-0.376,1.506-2.736,3.071-4.48,3.588c-26.764,7.947-53.564,7.764-80.161-0.63
	c-39.33-12.414-71.628-35.747-99.917-65.16C8.838,477.632,8.659,477.227,7.769,475.857z"/>
  <path fill-rule="evenodd" clip-rule="evenodd" d="M219.324,302.775c14.286-47.586,45.394-83.763,79.746-118.619
	c3.008,2.962,5.66,5.507,8.236,8.125c23.79,24.178,44.944,50.372,60.275,80.81c4.048,8.035,6.688,16.776,10.048,25.161
	c1.055,2.637,0.637,3.98-2.325,5.07c-6.729,2.477-13.354,5.284-19.854,8.312c-2.371,1.106-3.496,0.471-5.127-1.126
	c-13.42-13.168-26.876-26.305-40.471-39.293c-3.175-3.034-6.921-5.471-11.043-8.681c-9.465,8.306-19.059,16.254-28.091,24.797
	c-8.235,7.791-15.936,16.153-23.688,24.436c-1.804,1.929-3.034,2.211-5.432,1.052C234.511,309.391,227.255,306.319,219.324,302.775z
	"/>
  <path fill-rule="evenodd" clip-rule="evenodd" d="M222.264,252.477c-6.682,15.802-12.809,30.292-19.052,45.053
	c-15.08-3.14-31.017-6.459-47.48-9.887c1.137-18.05,4.364-35.998,8.999-55.043C184.371,239.387,203.49,245.99,222.264,252.477z"/>
  <path fill-rule="evenodd" clip-rule="evenodd" d="M443.528,286.962c-17.154,3.386-33.028,6.518-48.57,9.586
	c-6.05-14.199-12.192-28.609-18.779-44.064c18.692-6.463,37.832-13.083,58.29-20.158
	C437.634,251.419,440.575,269.159,443.528,286.962z"/>
</svg>
