<?xml version="1.0" encoding="utf-8"?>
<!-- Generator: Adobe Illustrator 16.0.0, SVG Export Plug-In . SVG Version: 6.00 Build 0)  -->
<!DOCTYPE svg PUBLIC "-//W3C//DTD SVG 1.1//EN" "http://www.w3.org/Graphics/SVG/1.1/DTD/svg11.dtd">
<svg version="1.1" id="Capa_1"
  xmlns="http://www.w3.org/2000/svg"
  xmlns:xlink="http://www.w3.org/1999/xlink" x="0px" y="0px" viewBox="0 6.556 595.279 196.49" enable-background="new 0 6.556 595.279 196.49" xml:space="preserve">
  <g fill="#fff">
    <defs>
      <rect id="SVGID_1_" x="5.035" y="8.511" width="586.104" height="190.394"/>
    </defs>
    <clipPath id="SVGID_2_">
      <use xlink:href="#SVGID_1_" overflow="visible"/>
    </clipPath>
    <path clip-path="url(#SVGID_2_)" d="M565.367,93.281c-0.866,2.317-2.168,4.38-3.907,6.194c-1.933,2.014-3.741,3.546-5.429,4.604
		c-1.691,1.059-3.596,1.586-5.718,1.586c-2.897,0-5.357-1.23-7.385-3.7c-2.025-2.465-3.04-5.564-3.04-9.288
		c0-6.545,2.173-11.502,6.514-14.877c4.343-3.374,10.665-5.062,18.965-5.062V93.281z M586.794,105.817
		c-1.834-0.401-3.308-1.331-4.414-2.795c-1.11-1.457-1.665-3.144-1.665-5.057V58.998c0-6.847-2.486-12.334-7.456-16.463
		c-4.973-4.126-11.703-6.192-20.195-6.192c-4.342,0-8.591,0.678-12.74,2.039c-4.15,1.36-7.529,3.301-10.134,5.815
		c-2.606,2.518-3.909,5.438-3.909,8.76c0,3.224,0.963,6.091,2.895,8.607c1.93,2.518,4.924,3.779,8.976,3.779
		c2.412,0,4.562-0.807,6.443-2.42c1.883-1.609,2.822-3.37,2.822-5.285c-1.737-0.4-3.137-1.382-4.199-2.946
		c-1.061-1.559-1.592-3.144-1.592-4.755c0-3.222,1.039-5.665,3.112-7.327c2.076-1.662,4.852-2.491,8.326-2.491
		c4.825,0,8.084,1.459,9.771,4.379c1.687,2.922,2.532,7.755,2.532,14.5v9.062c-6.658,0-12.982,0.63-18.965,1.889
		c-5.982,1.258-10.956,3.096-14.912,5.511c-3.668,2.218-6.466,4.71-8.394,7.478c-1.933,2.771-2.896,5.612-2.896,8.532
		c0,5.943,2.288,10.571,6.875,13.896c4.583,3.324,10.933,4.982,19.038,4.982c3.764,0,6.854-0.603,9.267-1.812
		c4.345-2.01,7.672-4.53,9.987-7.55v7.098h25.771v-1.356L586.794,105.817z M508.619,97.964V58.998c0-4.43-1.089-8.482-3.259-12.16
		c-2.171-3.674-5.164-6.591-8.975-8.76c-3.813-2.163-8.085-3.245-12.814-3.245c-4.729,0-8.831,1.26-12.307,3.774
		c-3.475,2.518-6.562,5.891-9.262,10.121c-2.128-3.927-5.264-7.224-9.412-9.893c-4.153-2.667-8.591-4.002-13.319-4.002
		c-4.055,0-7.578,0.982-10.568,2.945c-2.995,1.963-5.892,4.607-8.688,7.929v-7.1h-25.769v1.358l4.342,0.908
		c1.834,0.402,3.308,1.336,4.417,2.795c1.107,1.459,1.666,3.146,1.666,5.06v49.236c0,1.913-0.559,3.601-1.666,5.057
		c-1.109,1.464-2.583,2.394-4.417,2.795l-4.342,0.909v1.356h35.327v-1.356l-3.622-0.909c-1.736-0.502-3.161-1.432-4.27-2.795
		c-1.109-1.359-1.667-2.993-1.667-4.908V57.489c0-3.324,0.869-6.37,2.609-9.14c1.734-2.769,3.882-4.957,6.438-6.568
		c2.558-1.61,5.092-2.418,7.603-2.418c3.86,0,6.874,1.714,9.047,5.135c2.173,3.426,3.258,8.258,3.258,14.5v39.115
		c0,1.915-0.556,3.549-1.665,4.908c-1.111,1.363-2.534,2.293-4.27,2.795l-3.62,0.909v1.356h34.455v-1.356l-3.617-0.909
		c-1.736-0.502-3.165-1.432-4.271-2.795c-1.111-1.359-1.665-2.993-1.665-4.908V58.998c0-3.626,0.87-6.922,2.605-9.893
		c1.739-2.968,3.909-5.336,6.518-7.101c2.604-1.758,5.112-2.641,7.528-2.641c3.856,0,5.354,1.714,7.526,5.135
		c2.174,3.426,3.258,8.258,3.258,14.5v39.115C491.752,100.028,508.619,99.877,508.619,97.964 M389.614,105.817
		c-1.834-0.401-3.307-1.331-4.418-2.795c-1.109-1.457-1.661-3.144-1.661-5.057V58.998c0-4.43-1.089-8.482-3.258-12.16
		c-2.172-3.674-5.165-6.591-8.976-8.76c-3.816-2.163-8.084-3.245-12.815-3.245c-4.73,0-8.829,1.26-12.304,3.774
		c-3.476,2.518-6.564,5.891-9.266,10.121c-2.124-3.927-5.262-7.224-9.411-9.893c-4.15-2.667-8.59-4.002-13.317-4.002
		c-4.057,0-7.581,0.982-10.571,2.945c-2.992,1.963-5.887,4.607-8.684,7.929v-7.1H269.16v1.358l4.345,0.908
		c1.83,0.402,3.303,1.336,4.415,2.795c1.108,1.459,1.663,3.146,1.663,5.06v49.236c0,1.913-0.555,3.601-1.663,5.057
		c-1.112,1.464-2.585,2.394-4.415,2.795l-4.345,0.909v1.356h35.323v-1.356l-3.617-0.909c-1.738-0.502-3.161-1.432-4.271-2.795
		c-1.111-1.359-1.663-2.993-1.663-4.908V57.489c0-3.324,0.867-6.37,2.604-9.14c1.739-2.769,3.882-4.957,6.443-6.568
		c2.556-1.61,5.088-2.418,7.601-2.418c3.86,0,6.876,1.714,9.047,5.135c2.173,3.426,3.259,8.258,3.259,14.5v39.115
		c0,1.915-0.559,3.549-1.663,4.908c-1.112,1.363-2.536,2.293-4.271,2.795l-3.622,0.909v1.356h34.458v-1.356l-3.622-0.909
		c-1.735-0.502-3.16-1.432-4.269-2.795c-1.111-1.359-1.666-2.993-1.666-4.908V58.998c0-3.626,0.867-6.922,2.606-9.893
		c1.735-2.968,3.908-5.336,6.514-7.101c2.606-1.758,5.114-2.641,7.528-2.641c3.862,0,6.878,1.714,9.049,5.135
		c2.173,3.426,3.258,8.258,3.258,14.5v39.115c0,1.915-0.558,3.549-1.662,4.908c-1.112,1.363-2.535,2.293-4.274,2.795l-3.617,0.909
		v1.356h35.325v-1.356L389.614,105.817z M233.547,39.665c3.378,0,6.272,1.963,8.687,5.891c2.122,3.424,3.569,8.812,4.344,16.162
		h-26.349c0.77-5.942,2.242-11.1,4.416-15.481C226.815,41.856,229.782,39.665,233.547,39.665 M253.961,78.179
		c-2.415,0-4.562,0.806-6.443,2.416c-1.882,1.612-2.822,3.375-2.822,5.288c1.736,0.402,3.135,1.384,4.198,2.945
		c1.061,1.562,1.591,3.148,1.591,4.758c0,3.322-1.28,6.292-3.836,8.912c-2.56,2.617-5.479,3.928-8.759,3.928
		c-5.888,0-10.474-3.25-13.755-9.746c-3.281-6.493-4.921-14.322-4.921-23.486c0-2.514,0.144-4.982,0.433-7.397h46.039
		c-1.158-8.256-4.149-14.954-8.975-20.087c-2.802-2.92-6.154-5.212-10.062-6.872c-3.909-1.662-8.037-2.493-12.378-2.493
		c-4.343,0-8.469,0.831-12.378,2.493c-3.908,1.66-7.216,3.952-9.917,6.872c-6.468,7.048-9.699,16.261-9.699,27.638
		c0,11.176,3.475,20.24,10.422,27.187c2.992,3.225,6.684,5.687,11.076,7.399c4.391,1.712,8.999,2.465,13.827,2.265
		c4.825,0.101,9.41-0.729,13.753-2.491c4.343-1.763,7.84-4.154,10.497-7.173c2.653-3.02,3.98-6.345,3.98-9.97
		c0-3.22-0.967-6.089-2.896-8.608C261.005,79.438,258.014,78.179,253.961,78.179 M159.857,85.428c-3.184,0-6.226-1.509-9.122-4.53
		c-2.025-2.114-3.618-5.034-4.774-8.76c-1.16-3.724-1.739-7.905-1.739-12.537c0-6.342,1.158-11.176,3.474-14.498
		c2.702-4.329,6.371-6.496,11.003-6.496c3.279,0,6.37,1.511,9.266,4.532c1.93,2.114,3.475,5.059,4.632,8.835
		c1.158,3.774,1.739,7.929,1.739,12.459c0,6.342-1.16,11.177-3.475,14.5C168.156,83.263,164.491,85.428,159.857,85.428
		 M189.97,33.322c-2.992,0-5.888,0.478-8.685,1.434c-2.802,0.958-5.068,2.442-6.806,4.457c-1.352-0.504-2.799-0.957-4.342-1.358
		c-3.67-1.005-7.288-1.511-10.859-1.511c-4.538,0-8.784,0.655-12.738,1.963c-3.959,1.31-7.338,3.123-10.134,5.438
		c-6.083,5.235-9.122,11.326-9.122,18.271c0,3.224,0.625,6.297,1.882,9.217c2.509,4.934,6.082,8.657,10.713,11.175
		c-4.052,2.213-7.311,4.556-9.771,7.021c-2.461,2.47-3.691,5.162-3.691,8.083c0,3.522,1.688,6.417,5.064,8.681
		c3.379,2.266,8.3,3.4,14.769,3.4h24.901c10.518,0,15.78,4.781,15.78,14.347c0,2.617-0.63,5.187-1.882,7.703
		c-1.256,2.516-2.945,4.58-5.067,6.192c-2.512,1.914-5.19,3.22-8.036,3.927c-2.848,0.704-6.203,1.06-10.062,1.06
		c-5.984,0-11.317-1.109-15.996-3.325c-4.684-2.214-7.022-5.89-7.022-11.027c0-2.115,0.698-3.827,2.099-5.133
		c1.399-1.311,3.114-2.165,5.141-2.57c0-6.142-3.571-9.211-10.713-9.211c-3.959,0-6.926,1.486-8.905,4.455
		c-1.976,2.968-2.966,6.117-2.966,9.44c0,5.234,2.072,9.437,6.225,12.61c4.147,3.174,9.144,5.384,14.983,6.645
		c5.839,1.26,11.558,1.888,17.156,1.888c9.267,0,17.132-2.667,23.599-8.001c6.562-5.438,9.845-11.835,9.845-19.182
		c0-6.343-2.245-11.479-6.734-15.407c-4.486-3.928-10.303-5.891-17.443-5.891h-24.901c-3.475,0-6.25-0.323-8.325-0.98
		c-2.077-0.655-3.112-2.039-3.112-4.153c0-2.617,2.653-5.589,7.962-8.911c2.219,1.208,4.8,2.114,7.745,2.719
		c2.943,0.603,5.863,0.906,8.758,0.906c4.536,0,8.781-0.653,12.741-1.963c3.958-1.308,7.333-3.121,10.135-5.438
		c6.079-5.235,9.12-11.327,9.12-18.276c0-9.461-4.488-16.511-13.462-21.142h0.289c1.061-1.308,2.412-2.365,4.054-3.173
		c1.64-0.804,3.232-1.206,4.778-1.206c2.702,0,4.994,0.629,6.876,1.886c1.882,1.26,2.823,3.048,2.823,5.363
		c0,1.308-0.388,2.543-1.158,3.698c-0.773,1.16-1.835,1.889-3.185,2.192c0,1.409,0.699,2.717,2.098,3.927
		c1.398,1.206,3.017,1.811,4.851,1.811c2.411,0,4.269-0.956,5.572-2.87c1.304-1.911,1.956-4.025,1.956-6.343
		c0-3.926-1.618-7.046-4.85-9.363C198.679,34.481,194.699,33.322,189.97,33.322"/>
    <path clip-path="url(#SVGID_2_)" d="M552.943,122.651c3.949,0,7.337,2.119,10.16,6.351c2.482,3.697,4.179,9.507,5.083,17.438
		h-30.825c0.899-6.41,2.624-11.979,5.164-16.7C545.063,125.012,548.538,122.651,552.943,122.651 M576.826,164.198
		c-2.825,0-5.338,0.871-7.54,2.608s-3.303,3.638-3.303,5.703c2.03,0.435,3.667,1.493,4.912,3.177
		c1.242,1.683,1.863,3.396,1.863,5.132c0,3.584-1.499,6.792-4.49,9.612c-2.99,2.826-6.407,4.237-10.246,4.237
		c-6.889,0-12.252-3.505-16.091-10.509c-3.84-7.007-5.759-15.452-5.759-25.337c0-2.713,0.169-5.379,0.508-7.984h53.863
		c-1.354-8.904-4.859-16.13-10.503-21.673c-3.278-3.148-7.196-5.619-11.772-7.41c-4.571-1.792-9.4-2.688-14.48-2.688
		c-5.083,0-9.91,0.896-14.482,2.688c-4.573,1.792-8.443,4.262-11.6,7.41c-7.57,7.607-11.353,17.546-11.353,29.821
		c0,12.057,4.067,21.832,12.198,29.326c3.497,3.479,7.815,6.137,12.956,7.984c5.138,1.846,10.526,2.662,16.176,2.444
		c5.645,0.104,11.011-0.79,16.091-2.688c5.083-1.9,9.175-4.483,12.278-7.741c3.107-3.257,4.66-6.841,4.66-10.755
		c0-3.475-1.13-6.569-3.387-9.286C585.066,165.559,581.566,164.198,576.826,164.198 M474.152,125.582
		c3.273,0,6.27,0.792,8.979,2.366c2.71,1.574,5.025,3.776,6.944,6.598v44.478c-1.692,3.588-4.178,6.71-7.453,9.368
		c-3.274,2.663-6.72,3.995-10.331,3.995c-4.405,0-8.245-2.445-11.518-7.331c-4.066-6.192-6.098-14.883-6.098-26.069
		c0-11.73,2.088-20.422,6.268-26.07C464.669,128.026,469.073,125.582,474.152,125.582 M491.731,93.321v32.424
		c-2.032-1.955-6.288-3.555-10.126-4.806c-3.838-1.248-7.734-1.872-11.686-1.872c-5.082,0-9.939,0.921-14.567,2.767
		c-4.633,1.851-8.695,4.4-12.197,7.657c-7.787,7.499-11.686,17.328-11.686,29.495c0,11.513,3.838,21.288,11.519,29.326
		c3.273,3.258,7.085,5.841,11.433,7.741c4.346,1.897,8.834,2.851,13.465,2.851c4.405,0,8.017-0.652,10.842-1.955
		c5.08-2.173,8.977-4.89,11.688-8.146v7.657h30.149v-1.465l-5.082-0.98c-2.144-0.431-3.868-1.437-5.167-3.015
		c-1.298-1.573-1.946-3.39-1.946-5.459h0.251V82.407 M425.713,123.141c-2.486-1.633-5.254-2.445-8.302-2.445
		c-4.404,0-8.838,1.658-13.296,4.969c-4.463,3.312-7.991,7.687-10.586,13.116v-17.273H363.38v1.469l5.082,0.976
		c2.144,0.436,3.864,1.44,5.165,3.014c1.295,1.574,1.948,3.399,1.948,5.459v53.114c0,2.069-0.653,3.886-1.948,5.459
		c-1.301,1.578-3.021,2.584-5.165,3.015l-5.082,0.98v1.465h42.342v-1.465l-5.077-0.98c-2.148-0.431-3.869-1.437-5.167-3.015
		c-1.302-1.573-1.948-3.39-1.948-5.459v-40.404c3.837-8.146,8.017-12.22,12.531-12.22c1.697,0,3.447,0.544,5.253,1.629
		c1.58,0.871,2.852,2.064,3.812,3.583c0.959,1.523,1.44,3.044,1.44,4.563c0,0.653-0.23,1.628-0.679,2.93
		c1.018,0.653,2.373,0.98,4.065,0.98c1.918,0,3.837-0.431,5.761-1.302c1.918-0.871,3.388-2.065,4.399-3.588
		c1.697-2.388,2.544-4.832,2.544-7.331c0-2.281-0.681-4.4-2.033-6.355C429.267,126.072,427.631,124.443,425.713,123.141
		 M321.712,122.651c3.951,0,7.338,2.119,10.164,6.351c2.482,3.697,4.175,9.507,5.079,17.438h-30.826
		c0.904-6.41,2.625-11.979,5.166-16.7C313.836,125.012,317.308,122.651,321.712,122.651 M345.595,164.198
		c-2.826,0-5.337,0.871-7.537,2.608s-3.304,3.638-3.304,5.703c2.033,0.435,3.668,1.493,4.911,3.177
		c1.243,1.683,1.865,3.396,1.865,5.132c0,3.584-1.498,6.792-4.488,9.612c-2.994,2.826-6.412,4.237-10.249,4.237
		c-6.89,0-12.253-3.505-16.093-10.509c-3.839-7.007-5.758-15.452-5.758-25.337c0-2.713,0.169-5.379,0.508-7.984h53.864
		c-1.354-8.904-4.856-16.13-10.5-21.673c-3.278-3.148-7.2-5.619-11.772-7.41c-4.575-1.792-9.403-2.688-14.484-2.688
		c-5.079,0-9.906,0.896-14.482,2.688c-4.57,1.792-8.44,4.262-11.601,7.41c-7.568,7.607-11.349,17.546-11.349,29.821
		c0,12.057,4.065,21.832,12.195,29.326c3.501,3.479,7.821,6.137,12.958,7.984c5.138,1.846,10.53,2.662,16.177,2.444
		c5.646,0.104,11.011-0.79,16.092-2.688c5.08-1.9,9.173-4.483,12.281-7.741c3.102-3.257,4.658-6.841,4.658-10.755
		c0-3.475-1.132-6.569-3.39-9.286C353.835,165.559,350.339,164.198,345.595,164.198 M241.768,198.904h4.743l24.389-59.636
		c1.582-3.907,3.952-7.273,7.114-10.103c3.161-2.822,6.832-4.886,11.012-6.188h0.169v-1.469h-32.183v1.469l3.388,0.976
		c2.143,0.653,3.838,1.792,5.082,3.42c1.24,1.628,1.862,3.424,1.862,5.38c0,0.976-0.283,2.172-0.847,3.583l-16.598,40.408
		L230.419,136.5c-0.792-1.52-1.187-3.148-1.187-4.886c0-2.064,0.649-3.914,1.947-5.542c1.298-1.629,3.021-2.659,5.167-3.094v-1.469
		h-42.345v1.469c3.955,0.871,7.54,2.604,10.757,5.212c3.217,2.608,5.784,5.924,7.705,9.939L241.768,198.904z"/>
    <path clip-path="url(#SVGID_2_)" d="M85.593,93.594c-0.849,2.168-2.121,4.099-3.819,5.793c-1.886,1.886-3.651,3.323-5.297,4.312
		c-1.651,0.988-3.512,1.482-5.584,1.482c-2.826,0-5.228-1.151-7.208-3.461c-1.978-2.309-2.968-5.207-2.968-8.694
		c0-6.123,2.12-10.761,6.359-13.92c4.239-3.156,10.411-4.735,18.516-4.735V93.594z M106.509,105.323
		c-1.792-0.377-3.228-1.248-4.31-2.613c-1.084-1.367-1.626-2.946-1.626-4.735V61.51c0-6.406-2.428-11.541-7.279-15.405
		c-4.853-3.862-11.424-5.793-19.716-5.793c-4.24,0-8.388,0.634-12.437,1.907c-4.053,1.272-7.35,3.087-9.892,5.44
		c-2.544,2.358-3.818,5.088-3.818,8.197c0,3.018,0.941,5.704,2.828,8.057c1.884,2.357,4.805,3.534,8.762,3.534
		c2.354,0,4.452-0.754,6.29-2.261c1.836-1.505,2.755-3.157,2.755-4.949c-1.694-0.375-3.062-1.292-4.097-2.755
		c-1.041-1.458-1.557-2.945-1.557-4.45c0-3.015,1.012-5.303,3.04-6.855c2.025-1.555,4.735-2.332,8.126-2.332
		c4.711,0,7.891,1.367,9.541,4.099c1.646,2.734,2.474,7.255,2.474,13.567v8.479c-6.502,0-12.675,0.591-18.516,1.768
		c-5.844,1.178-10.694,2.899-14.557,5.159c-3.582,2.073-6.312,4.404-8.196,6.994c-1.886,2.594-2.829,5.254-2.829,7.988
		c0,5.56,2.24,9.891,6.715,13.002c4.473,3.107,10.67,4.66,18.584,4.66c3.676,0,6.69-0.562,9.046-1.696
		c4.239-1.884,7.49-4.238,9.752-7.063v6.641h25.156v-1.269L106.509,105.323z M5.035,106.173v1.269h35.333v-1.269l-4.242-0.85
		c-1.79-0.377-3.228-1.248-4.31-2.613c-1.083-1.367-1.625-2.946-1.625-4.735V8.513H5.035v1.271l4.24,0.85
		c1.79,0.377,3.226,1.25,4.31,2.613c1.083,1.367,1.625,2.947,1.625,4.735v79.995c0,1.789-0.542,3.368-1.625,4.735
		c-1.084,1.366-2.52,2.236-4.31,2.613L5.035,106.173z"/>
  </g>
</svg>
