<?xml version="1.0" encoding="iso-8859-1"?>
<!-- Generator: Adobe Illustrator 19.0.0, SVG Export Plug-In . SVG Version: 6.00 Build 0)  -->
<svg version="1.1" id="Layer_1"
  xmlns="http://www.w3.org/2000/svg"
  xmlns:xlink="http://www.w3.org/1999/xlink" x="0px" y="0px" viewBox="0 0 512.001 512.001" style="enable-background:new 0 0 512.001 512.001;" xml:space="preserve">
  <path style="fill:#E9A440;" d="M355.055,233.902l-87.012-0.048v-63.811c0-28.784-23.418-52.202-52.202-52.202
	s-52.202,23.418-52.202,52.202v66.757c-5.514-1.943-11.377-2.955-17.394-2.955c-0.002,0-0.005,0-0.007,0
	c-28.784,0-52.202,23.418-52.202,52.202v69.348C94.037,441.747,164.29,512,250.642,512c0.505,0,1.008-0.022,1.51-0.066
	l127.604-11.12c7.703-0.672,14.039-6.344,15.553-13.925l34.801-174.175c0.224-1.123,0.338-2.264,0.338-3.409
	C430.448,267.731,396.624,233.904,355.055,233.902z"/>
  <g>
    <path style="fill:#3D6DEB;" d="M135.864,107.468c4.452,0,8.907-1.699,12.303-5.096c6.796-6.796,6.796-17.812,0-24.608
		l-36.91-36.912c-6.793-6.796-17.811-6.796-24.608,0c-6.796,6.796-6.796,17.812,0,24.608l36.91,36.911
		C126.958,105.768,131.411,107.468,135.864,107.468z"/>
    <path style="fill:#3D6DEB;" d="M283.51,102.367c3.398,3.398,7.85,5.097,12.303,5.097c4.452,0,8.907-1.699,12.305-5.096
		l36.912-36.911c6.796-6.796,6.796-17.812,0-24.608c-6.794-6.796-17.812-6.796-24.608,0L283.51,77.76
		C276.714,84.554,276.714,95.571,283.51,102.367z"/>
    <path style="fill:#3D6DEB;" d="M186.483,82.945c2.219,0,4.474-0.427,6.652-1.329c8.878-3.677,13.095-13.856,9.417-22.734
		l-19.938-48.135c-3.677-8.879-13.858-13.095-22.736-9.417c-8.878,3.677-13.095,13.856-9.417,22.734L170.4,72.199
		C173.175,78.9,179.654,82.945,186.483,82.945z"/>
    <path style="fill:#3D6DEB;" d="M271.802,1.33c-8.881-3.678-19.058,0.537-22.737,9.416l-19.94,48.135
		c-3.677,8.878,0.538,19.057,9.416,22.736c2.179,0.903,4.434,1.329,6.653,1.329c6.828,0,13.307-4.045,16.083-10.745l19.94-48.135
		C284.896,15.186,280.681,5.008,271.802,1.33z"/>
  </g>
  <path id="SVGCleanerId_0" style="fill:#E9A440;" d="M355.055,233.902l-87.012-0.046v-63.811c0-28.784-23.418-52.202-52.202-52.202
	s-52.202,23.418-52.202,52.202V236.8c-5.514-1.943-11.377-2.955-17.394-2.955c-0.002,0-0.005,0-0.007,0
	c-28.784,0-52.202,23.418-52.202,52.202v69.348c0,86.352,70.252,156.605,156.605,156.605c0.503,0,1.008-0.022,1.51-0.066
	l127.604-11.12c7.703-0.672,14.039-6.344,15.553-13.925l34.801-174.175c0.224-1.123,0.338-2.264,0.338-3.409
	C430.448,267.731,396.624,233.904,355.055,233.902z M363.739,467.277l-101.512,8.846l-12.317,1.073
	c-66.825-0.398-121.072-54.885-121.072-121.802v-69.348c0-9.595,7.805-17.401,17.403-17.401c4.647-0.001,9.015,1.809,12.301,5.095
	c3.286,3.286,5.097,7.657,5.097,12.306v69.602c0,9.61,7.791,17.401,17.401,17.401s17.401-7.791,17.401-17.401v-69.602V170.042
	c0-9.595,7.806-17.401,17.401-17.401c9.595,0,17.401,7.806,17.401,17.401v81.203c0,9.606,7.785,17.396,17.391,17.401l11.595,0.006
	l92.817,0.05c21.862,0.002,39.744,17.369,40.574,39.031L363.739,467.277z"/>
  <path id="SVGCleanerId_1" style="fill:#EFC27B;" d="M355.045,268.703l-92.817-0.05v207.472l101.512-8.846l31.878-159.544
	C394.789,286.072,376.907,268.704,355.045,268.703z"/>
  <polygon style="fill:#EFC27B;" points="355.045,268.703 262.228,268.653 262.228,268.653 "/>
  <g>
    <path id="SVGCleanerId_0_1_" style="fill:#E9A440;" d="M355.055,233.902l-87.012-0.046v-63.811
		c0-28.784-23.418-52.202-52.202-52.202s-52.202,23.418-52.202,52.202V236.8c-5.514-1.943-11.377-2.955-17.394-2.955
		c-0.002,0-0.005,0-0.007,0c-28.784,0-52.202,23.418-52.202,52.202v69.348c0,86.352,70.252,156.605,156.605,156.605
		c0.503,0,1.008-0.022,1.51-0.066l127.604-11.12c7.703-0.672,14.039-6.344,15.553-13.925l34.801-174.175
		c0.224-1.123,0.338-2.264,0.338-3.409C430.448,267.731,396.624,233.904,355.055,233.902z M363.739,467.277l-101.512,8.846
		l-12.317,1.073c-66.825-0.398-121.072-54.885-121.072-121.802v-69.348c0-9.595,7.805-17.401,17.403-17.401
		c4.647-0.001,9.015,1.809,12.301,5.095c3.286,3.286,5.097,7.657,5.097,12.306v69.602c0,9.61,7.791,17.401,17.401,17.401
		s17.401-7.791,17.401-17.401v-69.602V170.042c0-9.595,7.806-17.401,17.401-17.401c9.595,0,17.401,7.806,17.401,17.401v81.203
		c0,9.606,7.785,17.396,17.391,17.401l11.595,0.006l92.817,0.05c21.862,0.002,39.744,17.369,40.574,39.031L363.739,467.277z"/>
  </g>
  <g>
    <path id="SVGCleanerId_1_1_" style="fill:#EFC27B;" d="M355.045,268.703l-92.817-0.05v207.472l101.512-8.846l31.878-159.544
		C394.789,286.072,376.907,268.704,355.045,268.703z"/>
  </g>
  <g>
    <polygon style="fill:#EFC27B;" points="355.045,268.703 262.228,268.653 262.228,268.653 	"/>
    <path style="fill:#EFC27B;" d="M262.228,476.124l101.512-8.846L262.228,476.124z"/>
  </g>
  <g>
    <path style="fill:#ECB45C;" d="M262.228,268.653l-11.595-0.006c-9.606-0.005-17.391-7.794-17.391-17.401v-81.203
		c0-9.595-7.806-17.401-17.401-17.401c-9.595,0-17.401,7.806-17.401,17.401v116.004v69.602c0,9.61-7.791,17.401-17.401,17.401
		s-17.401-7.791-17.401-17.401v-69.602c0-4.648-1.811-9.019-5.097-12.306c-3.286-3.286-7.655-5.096-12.301-5.095
		c-9.597,0-17.403,7.806-17.403,17.401v69.348c0,66.917,54.247,121.404,121.072,121.802l12.317-1.073V268.653z"/>
    <polygon style="fill:#ECB45C;" points="249.91,477.197 262.228,476.124 262.228,476.124 	"/>
    <path style="fill:#ECB45C;" d="M262.228,268.653l-11.595-0.007L262.228,268.653z"/>
  </g>
  <g>
  </g>
  <g>
  </g>
  <g>
  </g>
  <g>
  </g>
  <g>
  </g>
  <g>
  </g>
  <g>
  </g>
  <g>
  </g>
  <g>
  </g>
  <g>
  </g>
  <g>
  </g>
  <g>
  </g>
  <g>
  </g>
  <g>
  </g>
  <g>
  </g>
</svg>
