<?xml version="1.0" encoding="iso-8859-1"?>
<!-- Generator: Adobe Illustrator 19.0.0, SVG Export Plug-In . SVG Version: 6.00 Build 0)  -->
<svg version="1.1" id="Layer_1" xmlns="http://www.w3.org/2000/svg" xmlns:xlink="http://www.w3.org/1999/xlink" x="0px" y="0px"
	 viewBox="0 0 512 512" style="enable-background:new 0 0 512 512;" xml:space="preserve">
<g>
	<g>
		<g>
			<path d="M256,249.632c25.985,0,47.124-21.14,47.124-47.124c0-25.985-21.14-47.124-47.124-47.124
				c-25.985,0-47.124,21.14-47.124,47.124C208.876,228.492,230.015,249.632,256,249.632z M256,175.761
				c14.747,0,26.746,11.998,26.746,26.746S270.747,229.254,256,229.254s-26.746-11.998-26.746-26.746S241.253,175.761,256,175.761z"
				/>
			<path d="M256,266.189c-44.243,0-80.239,35.995-80.239,80.239c0,5.627,4.562,10.189,10.189,10.189H326.05
				c5.627,0,10.189-4.562,10.189-10.189C336.239,302.184,300.243,266.189,256,266.189z M197.007,336.239
				c4.853-28.17,29.46-49.672,58.993-49.672s54.142,21.501,58.993,49.672H197.007z"/>
			<path d="M256,92.975c-89.892,0-163.025,73.132-163.025,163.025S166.108,419.025,256,419.025S419.025,345.893,419.025,256
				S345.892,92.975,256,92.975z M256,398.647c-78.656,0-142.647-63.991-142.647-142.647S177.344,113.353,256,113.353
				S398.647,177.344,398.647,256S334.656,398.647,256,398.647z"/>
			<path d="M501.811,245.811h-19.344c-5.199-116.916-99.362-211.079-216.278-216.278V10.189C266.189,4.562,261.627,0,256,0
				s-10.189,4.562-10.189,10.189v19.344C128.895,34.732,34.732,128.895,29.533,245.811H10.189C4.562,245.811,0,250.373,0,256
				s4.562,10.189,10.189,10.189h19.344c5.199,116.916,99.362,211.079,216.278,216.278v19.344c0,5.627,4.562,10.189,10.189,10.189
				s10.189-4.562,10.189-10.189v-19.344c116.916-5.199,211.079-99.362,216.278-216.278h19.344c5.627,0,10.189-4.562,10.189-10.189
				S507.438,245.811,501.811,245.811z M447.72,266.189h14.355c-5.165,105.678-90.206,190.721-195.886,195.886V447.72
				c0-5.627-4.562-10.189-10.189-10.189s-10.189,4.562-10.189,10.189v14.355C140.131,456.91,55.09,371.867,49.925,266.189H64.28
				c5.627,0,10.189-4.562,10.189-10.189s-4.562-10.189-10.189-10.189H49.925C55.09,140.133,140.131,55.09,245.811,49.925v14.354
				c0,5.627,4.562,10.189,10.189,10.189s10.189-4.562,10.189-10.189V49.925c105.68,5.165,190.721,90.208,195.886,195.886H447.72
				c-5.627,0-10.189,4.562-10.189,10.189S442.093,266.189,447.72,266.189z"/>
		</g>
	</g>
</g>
<g>
</g>
<g>
</g>
<g>
</g>
<g>
</g>
<g>
</g>
<g>
</g>
<g>
</g>
<g>
</g>
<g>
</g>
<g>
</g>
<g>
</g>
<g>
</g>
<g>
</g>
<g>
</g>
<g>
</g>
</svg>
