<?xml version="1.0" encoding="iso-8859-1"?>
<!-- Generator: Adobe Illustrator 19.0.0, SVG Export Plug-In . SVG Version: 6.00 Build 0)  -->
<svg version="1.1" id="Layer_1"
  xmlns="http://www.w3.org/2000/svg"
  xmlns:xlink="http://www.w3.org/1999/xlink" x="0px" y="0px" viewBox="0 0 512 512" style="enable-background:new 0 0 512 512;" xml:space="preserve">
  <circle style="fill:#F2CF61;" cx="256" cy="256" r="256"/>
  <path style="fill:#66401F;" d="M392,292c-11.352,0-24-8-24-20v-32c0-41.632-30.668-73.004-72.304-73.004
	c-15.18,0-27.86,5.292-39.696,13.004c-11.836-7.712-24.512-13.004-39.696-13.004C174.668,166.996,144,198.368,144,240v32
	c0,12-12.648,20-24,20s-24-12.648-24-24c0,37.832,38.732,77.004,84.116,77.004c33.736,0,63.192-24.752,75.884-49.004
	c12.692,24.252,42.148,49.004,75.884,49.004c45.38,0,84.116-39.172,84.116-77.004C416,279.352,403.352,292,392,292z"/>
  <path style="fill:#59381B;" d="M416,268c0,37.832-38.736,45.004-84.116,45.004c-33.736,0-63.192-24.752-75.884-49.004
	c-12.692,24.252-42.148,49.004-75.884,49.004C134.732,313.004,96,305.832,96,268c0,37.832,38.732,77.004,84.116,77.004
	c33.736,0,63.192-24.752,75.884-49.004c12.692,24.252,42.148,49.004,75.884,49.004C377.264,345.004,416,305.832,416,268z"/>
  <path style="fill:#734823;" d="M214.92,190.996c15.94,0,28.248,5.292,40.676,13.004c12.428-7.712,25.34-13.004,41.28-13.004
	c34.572,0,61.36,19.652,71.096,48.44c-0.28-41.344-30.832-72.44-72.28-72.44c-15.18,0-27.86,5.292-39.696,13.004
	c-11.836-7.712-24.512-13.004-39.696-13.004c-41.42,0-71.956,31.056-72.276,72.364C153.732,210.612,180.38,190.996,214.92,190.996z" />
  <g>
  </g>
  <g>
  </g>
  <g>
  </g>
  <g>
  </g>
  <g>
  </g>
  <g>
  </g>
  <g>
  </g>
  <g>
  </g>
  <g>
  </g>
  <g>
  </g>
  <g>
  </g>
  <g>
  </g>
  <g>
  </g>
  <g>
  </g>
  <g>
  </g>
</svg>
