<?xml version="1.0" encoding="iso-8859-1"?>
<!-- Generator: Adobe Illustrator 19.0.0, SVG Export Plug-In . SVG Version: 6.00 Build 0)  -->
<svg version="1.1" id="Layer_1"
  xmlns="http://www.w3.org/2000/svg"
  xmlns:xlink="http://www.w3.org/1999/xlink" x="0px" y="0px" viewBox="0 0 512 512" style="enable-background:new 0 0 512 512;" xml:space="preserve">
  <g>
    <path style="fill:#90BAE1;" d="M326.621,52.966H185.379c-14.627,0-26.483-11.855-26.483-26.483S170.752,0,185.379,0h141.241
		c14.627,0,26.483,11.855,26.483,26.483S341.248,52.966,326.621,52.966"/>
    <path style="fill:#B0D3F0;" d="M326.621,118.569V52.962H185.379v65.607c-77.312,28.69-132.414,103.097-132.414,190.393
		c0,112.137,90.906,203.034,203.034,203.034s203.034-90.898,203.034-203.034C459.034,221.666,403.933,147.258,326.621,118.569"/>
    <path style="fill:#4482C3;" d="M379.586,300.138c0-68.255-55.331-123.586-123.586-123.586s-123.586,55.331-123.586,123.586
		S187.745,423.724,256,423.724S379.586,368.393,379.586,300.138"/>
    <path style="fill:#C03A2B;" d="M379.586,300.138c0,68.255-55.331,123.586-123.586,123.586s-123.586-55.331-123.586-123.586
		c0-26.28,8.263-50.591,22.246-70.621H69.191c-10.399,24.417-16.225,51.235-16.225,79.448C52.966,421.102,143.872,512,256,512
		s203.034-90.898,203.034-203.034c0-28.213-5.826-55.031-16.225-79.448h-85.469C371.324,249.547,379.586,273.858,379.586,300.138"/>
    <path style="fill:#FFFFFF;" d="M295.811,238.345c-19.218,0-33.748,13.497-39.83,28.248c-6.073-14.751-20.612-28.248-39.83-28.248
		c-39.83,0-52.833,49.178-24.055,78.318c10.708,10.84,60.937,60.451,63.965,62.923c3.513-3.407,53.442-51.942,63.815-62.923
		C348.732,286.093,335.65,238.345,295.811,238.345"/>
  </g>
  <g>
  </g>
  <g>
  </g>
  <g>
  </g>
  <g>
  </g>
  <g>
  </g>
  <g>
  </g>
  <g>
  </g>
  <g>
  </g>
  <g>
  </g>
  <g>
  </g>
  <g>
  </g>
  <g>
  </g>
  <g>
  </g>
  <g>
  </g>
  <g>
  </g>
</svg>
