<?xml version="1.0" encoding="iso-8859-1"?>
<!-- Generator: Adobe Illustrator 19.0.0, SVG Export Plug-In . SVG Version: 6.00 Build 0)  -->
<svg version="1.1" id="Layer_1" xmlns="http://www.w3.org/2000/svg" xmlns:xlink="http://www.w3.org/1999/xlink" x="0px" y="0px"
	 viewBox="0 0 511.999 511.999" style="enable-background:new 0 0 511.999 511.999;" xml:space="preserve">
<g>
	<path style="fill:#FFC107;" d="M493.653,205.313l-8.362,16.81c-43.177-56.83-132.86-94.12-229.283-94.12
		c-98.983,0-187.13,35.753-229.88,92.072l-7.68-14.848c36.607-54.014,137.382-94.29,237.56-94.29
		C356.271,110.938,457.046,151.214,493.653,205.313z"/>
	<circle style="fill:#FFC107;" cx="204.792" cy="42.673" r="17.066"/>
	<circle style="fill:#FFC107;" cx="307.189" cy="42.673" r="17.066"/>
</g>
<path style="fill:#D50000;" d="M494.933,366.929c0,65.875-53.588,119.463-119.463,119.463H136.545
	c-65.875,0-119.463-53.588-119.463-119.463c0-103.506,107.175-187.727,238.925-187.727S494.933,263.423,494.933,366.929z"/>
<path d="M256.008,162.136c-141.137,0-255.991,91.901-255.991,204.793c0,75.261,61.267,136.529,136.529,136.529h238.925
	c75.261,0,136.529-61.267,136.529-136.529C511.999,254.037,397.144,162.136,256.008,162.136z M375.471,486.392H136.545
	c-65.875,0-119.463-53.588-119.463-119.463c0-103.506,107.175-187.727,238.925-187.727s238.925,84.221,238.925,187.727
	C494.933,432.804,441.346,486.392,375.471,486.392z"/>
<path d="M510.719,200.364c-34.815-57.001-133.372-100.775-234.659-105.98l19.711-19.711c3.584,1.28,7.424,2.133,11.434,2.133
	c18.858,0,34.132-15.274,34.132-34.132S326.064,8.541,307.206,8.541s-34.132,15.274-34.132,34.132
	c0,8.533,3.243,16.213,8.448,22.186l-25.514,25.514l-25.514-25.514c5.205-5.973,8.448-13.653,8.448-22.186
	c0-18.858-15.274-34.132-34.132-34.132s-34.132,15.274-34.132,34.132s15.274,34.132,34.132,34.132c4.011,0,7.85-0.853,11.434-2.133
	l19.711,19.711c-101.287,5.205-199.844,48.98-234.659,105.98c-1.621,2.56-1.707,5.717-0.341,8.362l16.639,31.914
	c1.451,2.731,4.267,4.437,7.338,4.523c3.072,0.171,5.888-1.451,7.509-4.011c35.156-57.513,125.009-96.082,223.566-96.082
	c97.447,0,187.13,39.508,223.139,98.301c1.536,2.56,4.267,4.096,7.253,4.096h0.341c3.157-0.171,5.888-1.963,7.253-4.693
	l17.066-34.132C512.426,205.996,512.255,202.839,510.719,200.364z M307.206,25.607c9.386,0,17.066,7.68,17.066,17.066
	s-7.68,17.066-17.066,17.066c-9.386,0-17.066-7.68-17.066-17.066S297.82,25.607,307.206,25.607z M204.81,59.74
	c-9.386,0-17.066-7.68-17.066-17.066s7.68-17.066,17.066-17.066s17.066,7.68,17.066,17.066S214.196,59.74,204.81,59.74z
	 M485.291,222.123c-43.177-56.83-132.86-94.12-229.283-94.12c-98.983,0-187.13,35.753-229.88,92.072l-7.68-14.848
	c36.607-54.014,137.382-94.29,237.56-94.29c100.263,0,201.039,40.276,237.645,94.376L485.291,222.123z"/>
<path style="fill:#B71C1C;" d="M430.398,238.806c24.584,29.499,38.936,64.715,38.936,102.525
	c0,65.875-53.588,119.463-119.463,119.463H110.946c-26.418,0-50.772-8.721-70.568-23.295c21.759,29.584,56.711,48.894,96.167,48.894
	h238.925c65.875,0,119.463-53.588,119.463-119.463C494.933,317.429,470.384,272.375,430.398,238.806z"/>
<g>
	<path style="fill:#F9A825;" d="M211.798,27.152c0.973,2.142,1.544,4.497,1.544,6.989c0,9.386-7.68,17.066-17.066,17.066
		c-2.492,0-4.847-0.572-6.989-1.544c2.688,5.922,8.627,10.078,15.522,10.078c9.386,0,17.066-7.68,17.066-17.066
		C221.876,35.779,217.712,29.84,211.798,27.152z"/>
	<path style="fill:#F9A825;" d="M314.195,27.152c0.973,2.142,1.544,4.497,1.544,6.989c0,9.386-7.68,17.066-17.066,17.066
		c-2.492,0-4.847-0.572-6.989-1.544c2.688,5.922,8.627,10.078,15.522,10.078c9.386,0,17.066-7.68,17.066-17.066
		C324.272,35.779,320.108,29.84,314.195,27.152z"/>
	<path style="fill:#F9A825;" d="M482.594,191.643l-8.593,17.322c4.011,4.275,7.85,8.627,11.289,13.158l8.362-16.81
		C490.487,200.637,486.682,196.106,482.594,191.643z"/>
</g>
<g>
</g>
<g>
</g>
<g>
</g>
<g>
</g>
<g>
</g>
<g>
</g>
<g>
</g>
<g>
</g>
<g>
</g>
<g>
</g>
<g>
</g>
<g>
</g>
<g>
</g>
<g>
</g>
<g>
</g>
</svg>
