<?xml version="1.0" encoding="iso-8859-1"?>
<!-- Generator: Adobe Illustrator 18.0.0, SVG Export Plug-In . SVG Version: 6.00 Build 0)  -->
<!DOCTYPE svg PUBLIC "-//W3C//DTD SVG 1.1//EN" "http://www.w3.org/Graphics/SVG/1.1/DTD/svg11.dtd">
<svg version="1.1" id="Capa_1" xmlns="http://www.w3.org/2000/svg" xmlns:xlink="http://www.w3.org/1999/xlink" x="0px" y="0px"
	 viewBox="0 0 194.861 194.861" style="enable-background:new 0 0 194.861 194.861;" xml:space="preserve">
<path d="M172.553,67.844c-2.93-2.929-7.678-2.928-10.607,0.001l-34.548,34.551v-48.75C127.398,24.065,103.334,0,73.756,0
	c0,0,0,0-0.001,0c0,0,0,0-0.001,0C44.175,0,20.111,24.065,20.111,53.644v133.717c0,4.142,3.358,7.5,7.5,7.5
	c4.142,0,7.5-3.358,7.5-7.5V53.644C35.111,32.336,52.446,15,73.754,15c0.001,0,0.001,0,0.001,0c0.001,0,0.001,0,0.001,0
	c21.308,0,38.643,17.336,38.643,38.644v48.75L77.655,67.646c-2.929-2.93-7.678-2.93-10.606-0.001
	c-2.929,2.929-2.93,7.677-0.001,10.606l47.547,47.555c1.406,1.407,3.314,2.197,5.304,2.197c1.989,0,3.897-0.791,5.304-2.197
	l47.352-47.355C175.482,75.521,175.482,70.773,172.553,67.844z"/>
<g>
</g>
<g>
</g>
<g>
</g>
<g>
</g>
<g>
</g>
<g>
</g>
<g>
</g>
<g>
</g>
<g>
</g>
<g>
</g>
<g>
</g>
<g>
</g>
<g>
</g>
<g>
</g>
<g>
</g>
</svg>
