<?xml version="1.0" encoding="iso-8859-1"?>
<!-- Generator: Adobe Illustrator 19.0.0, SVG Export Plug-In . SVG Version: 6.00 Build 0)  -->
<svg version="1.1" id="Layer_1" xmlns="http://www.w3.org/2000/svg" xmlns:xlink="http://www.w3.org/1999/xlink" x="0px" y="0px"
	 viewBox="0 0 504.534 504.534" style="enable-background:new 0 0 504.534 504.534;" xml:space="preserve">
<g transform="translate(1 1)">
	<path style="fill:#AE938D;" d="M288.28,239.853L85.187,442.947c1.707,4.267,2.56,9.387,2.56,14.507
		c0,23.893-18.773,42.667-42.667,42.667S2.413,481.347,2.413,457.453c0-23.893,18.773-42.667,42.667-42.667
		c5.12,0,9.387,0.853,14.507,2.56l202.24-202.24l0.853-0.853c4.267,3.413,8.533,7.68,13.653,12.8
		C280.6,230.467,284.867,234.733,288.28,239.853z M45.933,465.133c5.12,0,8.533-3.413,8.533-8.533s-3.413-8.533-8.533-8.533
		S37.4,451.48,37.4,456.6S40.813,465.133,45.933,465.133z M421.4,106.733l-45.227,45.227l-0.853,0.853
		c-4.267-3.413-8.533-7.68-13.653-12.8s-8.533-9.387-11.947-13.653l46.08-46.08L421.4,106.733z"/>
	<path style="fill:#ECF4F7;" d="M349.72,127.213c3.413,4.267,7.68,8.533,11.947,13.653c4.267,4.267,9.387,8.533,13.653,11.947
		c45.227,39.253,83.627,39.253,114.347,39.253c0,0,34.133,59.733-34.133,128s-128,34.133-128,34.133c0-30.72,0-69.12-39.253-114.347
		c-3.413-4.267-7.68-8.533-11.947-13.653c-4.267-4.267-9.387-8.533-13.653-12.8C217.453,175,179.053,175,148.333,175
		c0,0-34.133-59.733,34.133-128s128-34.133,128-34.133C310.467,43.587,310.467,81.987,349.72,127.213"/>
</g>
<path style="fill:#51565F;" d="M46.933,504.533C21.333,504.533,0,483.2,0,457.6s21.333-46.933,46.933-46.933
	c4.267,0,8.533,0.853,13.653,1.707L240.64,232.32c1.707-1.707,4.267-1.707,5.973,0c1.707,1.707,1.707,4.267,0,5.973l-181.76,181.76
	c-0.853,0.853-2.56,1.707-4.267,0.853c-4.267-1.707-8.533-2.56-12.8-2.56c-21.333,0-38.4,17.067-38.4,38.4
	c0,21.333,17.067,38.4,38.4,38.4s38.4-17.067,38.4-38.4c0-4.267-0.853-8.533-2.56-12.8c-0.853-1.707,0-3.413,0.853-4.267L284.16,240
	c-2.56-3.413-5.973-6.827-9.387-10.24c-50.347-50.347-91.307-50.347-124.587-50.347c-1.707,0-2.56-0.853-3.413-2.56
	c0-0.853-34.987-63.147,34.987-133.12C251.733-26.24,314.027,8.747,314.88,8.747c1.707,0.853,2.56,2.56,2.56,3.413
	c0,29.867,0,65.707,34.987,108.373l43.52-43.52c0.853-0.853,1.707-0.853,3.413-0.853l0,0c0.853,0,2.56,0.853,3.413,0.853l25.6,25.6
	c1.707,1.707,1.707,4.267,0,5.973l-25.6,25.6c-1.707,1.707-4.267,1.707-5.973,0c-1.707-1.707-1.707-4.267,0-5.973l22.187-22.187
	L399.36,86.4l-40.96,40.96c2.56,3.413,5.973,6.827,9.387,10.24c50.347,50.347,91.307,50.347,124.587,50.347
	c1.707,0,2.56,0.853,3.413,1.707c0,0.853,34.987,63.147-34.987,133.12c-69.973,69.973-132.267,34.987-133.12,34.987
	c-1.707-0.853-2.56-2.56-2.56-3.413c0-29.867,0-65.707-34.987-108.373L93.014,443.947c1.707,4.267,1.707,8.533,1.707,13.653
	C93.867,483.2,72.533,504.533,46.933,504.533z M332.8,352.64c11.093,5.12,62.293,23.893,120.32-34.133s39.253-110.08,34.133-120.32
	c-34.987,0-77.653-1.707-128-52.053c-51.2-51.2-52.053-93.867-52.053-128c-11.093-5.12-62.293-23.893-120.32,34.133
	c-58.027,58.027-39.253,110.08-34.133,120.32c34.133,0,76.8,1.707,128,52.053C331.093,274.987,332.8,317.653,332.8,352.64z
	 M46.933,470.4c-6.827,0-12.8-5.973-12.8-12.8s5.973-12.8,12.8-12.8s12.8,5.973,12.8,12.8S53.76,470.4,46.933,470.4z
	 M46.933,453.333c-2.56,0-4.267,1.707-4.267,4.267c0,2.56,1.707,4.267,4.267,4.267c2.56,0,4.267-1.707,4.267-4.267
	C51.2,455.04,49.493,453.333,46.933,453.333z M379.733,248.533c-0.853,0-2.56,0-3.413-0.853L256.853,128.213
	C256,127.36,256,126.507,256,124.8s0-2.56,0.853-3.413c1.707-1.707,4.267-1.707,5.973,0l119.467,119.467
	c0.853,0.853,0.853,1.707,0.853,3.413s0,2.56-0.853,3.413C381.44,248.533,380.587,248.533,379.733,248.533z"/>
<g>
</g>
<g>
</g>
<g>
</g>
<g>
</g>
<g>
</g>
<g>
</g>
<g>
</g>
<g>
</g>
<g>
</g>
<g>
</g>
<g>
</g>
<g>
</g>
<g>
</g>
<g>
</g>
<g>
</g>
</svg>
