<?xml version="1.0" encoding="iso-8859-1"?>
<!-- Generator: Adobe Illustrator 19.0.0, SVG Export Plug-In . SVG Version: 6.00 Build 0)  -->
<svg version="1.1" id="Layer_1" xmlns="http://www.w3.org/2000/svg" xmlns:xlink="http://www.w3.org/1999/xlink" x="0px" y="0px"
	 viewBox="0 0 503.253 503.253" style="enable-background:new 0 0 503.253 503.253;" xml:space="preserve">
<g transform="translate(7 1)">
	<path style="fill:#C49AE9;" d="M245.48,3.053c12.8,0,24.747,0.853,37.547,2.56c0,0-4.267,14.507-9.387,33.28
		c-5.12,21.333-11.093,47.787-11.093,65.707h-34.133c0-17.92-5.12-44.373-11.093-64.853c-5.12-19.627-9.387-34.133-9.387-34.133
		C220.733,3.907,232.68,3.053,245.48,3.053"/>
	<path style="fill:#AAB1BA;" d="M390.547,224.92l-8.533,68.267l-76.8,34.133l-14.507,136.533h-90.453L185.747,327.32l-76.8-34.133
		l-8.533-68.267c0,0,73.387,14.507,128,17.067L219.88,378.52l17.067,34.133h17.067l17.067-34.133l-8.533-136.533
		C317.16,239.427,390.547,224.92,390.547,224.92"/>
	<path style="fill:#ECF4F7;" d="M187.453,45.72c0.853,0,16.213-4.267,29.013-5.12h0.853c5.12,21.333,11.093,47.787,11.093,64.853
		h34.133c0-17.92,5.973-44.373,11.093-65.707h0.853c17.92,2.56,30.72,6.827,30.72,6.827C384.574,71.32,442.6,145.56,442.6,233.453
		v264.533c0,0-68.267-8.533-153.6-8.533l2.56-25.6l14.507-136.533l76.8-34.133l8.533-68.267c0,0-73.387,14.507-128,17.067
		l8.533,136.533l-17.067,34.133H237.8l-17.067-34.133l8.533-136.533c-54.613-2.56-128-17.067-128-17.067l8.533,68.267l76.8,34.133
		l14.507,136.533l2.56,25.6c-85.333,0-153.6,8.533-153.6,8.533V233.453C49.213,145.56,107.24,70.467,187.453,45.72"/>
</g>
<path style="fill:#51565F;" d="M56.213,503.253c-0.853,0-1.707,0-2.56-0.853c-0.853-0.853-1.707-1.707-1.707-3.413V234.453
	c0-88.747,57.173-165.547,140.8-192c2.56-0.853,4.267,0.853,5.12,2.56c0.853,2.56-0.853,4.267-2.56,5.12
	C114.24,74.88,60.48,149.12,60.48,233.6v259.413c17.067-1.707,75.093-7.68,144.213-7.68L188.48,330.027l-74.24-33.28
	c-1.707-0.853-2.56-1.707-2.56-3.413l-8.533-68.267c0-1.707,0-2.56,1.707-3.413s2.56-1.707,3.413-0.853
	c0.853,0,73.387,14.507,127.147,17.067c0.853,0,2.56,0.853,2.56,1.707c0,0.853,0.853,1.707,0.853,3.413l-8.533,135.68l15.36,30.72
	H257.6l15.36-30.72l-8.533-135.68c0-0.853,0-2.56,0.853-3.413c0.853-0.853,1.707-1.707,2.56-1.707
	c53.76-2.56,126.293-17.067,127.147-17.067c1.707,0,2.56,0,3.413,0.853c0.853,0.853,1.707,2.56,1.707,3.413l-8.533,68.267
	c0,1.707-0.853,2.56-2.56,3.413l-74.24,33.28L298.56,485.333c69.973,0,128,5.973,144.213,7.68v-258.56
	c0-84.48-53.76-157.867-133.973-183.467c-2.56-0.853-3.413-3.413-2.56-5.12c0.853-2.56,3.413-3.413,5.12-2.56
	C394.987,69.76,451.307,146.56,451.307,234.453v264.533c0,0.853-0.853,2.56-1.707,3.413c-0.853,0.853-2.56,0.853-3.413,0.853
	c-0.853,0-69.12-8.533-152.747-8.533c-0.853,0-2.56-0.853-3.413-1.707c-0.853-0.853-0.853-1.707-0.853-3.413l17.067-162.133
	c0-1.707,0.853-2.56,2.56-3.413l74.24-33.28l7.68-59.733c-17.92,3.413-73.387,12.8-118.613,16.213l8.533,132.267
	c0,0.853,0,1.707-0.853,2.56l-17.067,34.133c-0.853,1.707-2.56,2.56-3.413,2.56H242.24c-1.707,0-3.413-0.853-3.413-2.56
	L221.76,382.08c0-0.853-0.853-1.707-0.853-2.56l8.533-132.267c-45.227-2.56-100.693-12.8-118.613-16.213l7.68,59.733l74.24,33.28
	c1.707,0.853,2.56,1.707,2.56,3.413l13.653,133.12h54.613c2.56,0,4.267,1.707,4.267,4.267c0,2.56-1.707,4.267-4.267,4.267h-53.76
	l2.56,20.48c0,0.853,0,2.56-0.853,3.413c-0.853,0.853-1.707,1.707-3.413,1.707C125.333,494.72,57.067,503.253,56.213,503.253
	L56.213,503.253z M269.547,110.72h-34.133c-2.56,0-4.267-1.707-4.267-4.267c0-33.28-19.627-97.28-19.627-98.133
	c0-0.853,0-2.56,0.853-3.413c0.853-0.853,1.707-1.707,2.56-1.707c24.747-4.267,50.347-4.267,75.947,0c0.853,0,2.56,0.853,2.56,1.707
	c0.853,0.853,0.853,2.56,0.853,3.413c0,0.853-19.627,64.853-19.627,98.133C273.813,109.013,272.107,110.72,269.547,110.72z
	 M239.68,102.187h25.6c0.853-29.867,14.507-76.8,18.773-91.307c-9.387-0.853-17.92-1.707-27.307-1.707V39.04
	c0,2.56-1.707,4.267-4.267,4.267s-4.267-1.707-4.267-4.267V9.173c-9.387,0-17.92,0.853-27.307,1.707
	C225.173,25.387,237.973,72.32,239.68,102.187z"/>
<g>
</g>
<g>
</g>
<g>
</g>
<g>
</g>
<g>
</g>
<g>
</g>
<g>
</g>
<g>
</g>
<g>
</g>
<g>
</g>
<g>
</g>
<g>
</g>
<g>
</g>
<g>
</g>
<g>
</g>
</svg>
