<?xml version="1.0" encoding="iso-8859-1"?>
<!-- Generator: Adobe Illustrator 16.0.0, SVG Export Plug-In . SVG Version: 6.00 Build 0)  -->
<!DOCTYPE svg PUBLIC "-//W3C//DTD SVG 1.1//EN" "http://www.w3.org/Graphics/SVG/1.1/DTD/svg11.dtd">
<svg version="1.1" id="Capa_1"
  xmlns="http://www.w3.org/2000/svg"
  xmlns:xlink="http://www.w3.org/1999/xlink" x="0px" y="0px" viewBox="0 0 588.385 588.385" style="enable-background:new 0 0 588.385 588.385;" xml:space="preserve">
  <g>
    <path d="M444.685,372.061c-46.817-16.524-78.642-64.872-55.691-114.444c20.502-43.758,77.112-29.07,112.608-23.868
		c24.174,3.672,41.004-6.12,40.697-31.212c-1.225-77.112-133.722-164.322-200.735-122.094
		c-16.219,10.098-27.54,31.212-36.414,47.124c-21.421,39.168-51.103,6.12-68.545-13.77C205.393,78.3,174.181,37.908,129.811,18.019
		C73.812-6.768,49.333,56.574,49.944,100.026c1.224,60.588,27.234,135.558,64.26,186.966
		C-97.854,196.11,41.376,541.584,89.112,528.427c6.12-1.836,11.934-9.181,14.382-14.688c17.442-42.228,23.562-101.592,87.516-86.904
		c55.08,12.853,101.898,81.396,146.269,114.444c72.828,54.162,179.928,44.982,235.312-28.458
		C635.322,429.895,494.257,389.809,444.685,372.061z M561.576,506.395c-37.025,67.932-137.699,67.014-197.063,37.026
		c-44.676-22.645-78.948-64.872-117.504-96.084c-61.812-50.49-124.848-43.759-146.574,37.943
		c-20.196,75.889-64.872-42.534-74.052-69.462c-8.262-23.868-12.546-48.96-13.464-73.746c-3.06-70.38,58.446-63.342,107.406-40.086
		c2.142,0.918,3.978,0.612,5.508-0.306c2.448,1.836,6.12-1.225,4.284-3.979c-0.306-0.611-0.918-1.529-1.224-2.142
		s-0.612-1.53-1.224-2.142C90.031,230.076,38.011,118.692,72.283,48.006C119.712-49.302,235.38,163.98,279.75,167.652
		c30.907,2.448,44.065-49.878,59.976-68.544c32.437-38.556,89.353-7.344,120.87,12.24c22.032,13.77,39.168,33.66,53.55,54.774
		c20.502,29.682,4.283,59.976-33.048,51.714c-78.029-16.83-129.438,38.862-102.815,113.832
		C405.823,409.087,622.164,394.704,561.576,506.395z"/>
    <path d="M85.44,79.524c-0.306-0.306-0.918-0.306-1.224,0c0.306-1.836-1.836-3.366-3.366-1.836
		c-10.404,12.24-9.486,28.764,1.224,40.392c1.224,1.224,3.366,1.224,4.59,0c5.202-5.508,8.874-11.628,9.18-19.584
		C96.15,91.458,92.172,82.584,85.44,79.524z M84.522,110.736c-6.426-8.568-7.038-18.666-1.53-28.152
		c1.836,4.59,4.896,8.262,6.12,13.158C90.336,100.944,87.889,106.453,84.522,110.736z"/>
    <path d="M128.281,49.537c-11.628-6.732-26.928-2.448-29.682,11.628c-0.612,3.366,3.978,5.814,5.814,2.448
		c4.896-9.792,11.628-12.546,21.726-7.038c8.874,4.59,15.3,14.382,14.076,24.48c-12.546,0.918-23.562-4.284-29.988-15.606
		c-1.53-2.448-5.202-0.306-3.978,2.448c7.344,14.076,20.808,20.502,36.414,18.972c1.224,0,2.448-0.918,2.754-2.142
		C149.088,70.344,140.521,56.574,128.281,49.537z"/>
    <path d="M210.289,137.052c-15.3-33.66-67.932-57.834-99.144-31.212c-1.224,0.918-1.53,2.448-1.53,3.672
		c-20.196,10.098-21.726,33.048-10.098,53.55c13.77,24.174,43.758,44.37,72.216,42.84
		C203.25,204.373,222.834,164.287,210.289,137.052z M164.389,195.192c-35.802-1.836-84.456-52.326-52.02-81.396
		c1.53,0.918,3.366,1.224,5.202,0c27.54-19.584,67.32-2.754,82.62,24.786C213.96,163.98,191.929,196.723,164.389,195.192z"/>
  </g>
  <g>
  </g>
  <g>
  </g>
  <g>
  </g>
  <g>
  </g>
  <g>
  </g>
  <g>
  </g>
  <g>
  </g>
  <g>
  </g>
  <g>
  </g>
  <g>
  </g>
  <g>
  </g>
  <g>
  </g>
  <g>
  </g>
  <g>
  </g>
  <g>
  </g>
</svg>
